<svg width="229" height="32" viewBox="0 0 229 32" fill="none" xmlns="http://www.w3.org/2000/svg">
<rect x="179.215" y="0.5" width="31" height="31" rx="15.5" fill="#003952" stroke="url(#paint0_linear_0_224)"/>
<path d="M190.659 22.176C189.059 22.176 187.971 21.7333 187.395 20.848C186.83 19.9627 186.547 18.5067 186.547 16.48C186.547 14.4533 186.835 13.0133 187.411 12.16C187.987 11.296 189.07 10.864 190.659 10.864C191.608 10.864 192.654 10.9973 193.795 11.264L193.731 12.704C192.771 12.5333 191.811 12.448 190.851 12.448C189.891 12.448 189.24 12.736 188.899 13.312C188.558 13.8773 188.387 14.9493 188.387 16.528C188.387 18.096 188.552 19.168 188.883 19.744C189.214 20.3093 189.859 20.592 190.819 20.592C191.779 20.592 192.75 20.512 193.731 20.352L193.779 21.824C192.68 22.0587 191.64 22.176 190.659 22.176ZM196.626 11.04L198.978 15.36L201.362 11.04H203.234L199.986 16.608L203.234 22H201.25L198.898 17.872L196.498 22H194.626L197.89 16.704L194.626 11.04H196.626Z" fill="white"/>
<path d="M218.715 13.8576L223.858 19L229 13.8576L228.143 13L223.858 17.2861L219.572 13L218.715 13.8576Z" fill="#1F1F1F"/>
<path d="M132.437 28.0177C132.892 28.0072 133.329 27.8362 133.67 27.5348C134.011 27.2335 134.234 26.8212 134.301 26.371H130.502C130.57 26.8334 130.804 27.2554 131.16 27.5583C131.516 27.8612 131.97 28.0244 132.437 28.0177Z" fill="#003952"/>
<path d="M143.162 23.576L142.917 23.3593C142.22 22.7387 141.61 22.0269 141.104 21.2432C140.551 20.1617 140.219 18.9807 140.129 17.7693V14.2016C140.126 13.7682 140.087 13.3358 140.013 12.9088C138.79 12.6573 137.691 11.9908 136.903 11.0222C136.114 10.0535 135.685 8.84216 135.687 7.59322V7.13822C134.933 6.76713 134.123 6.52311 133.29 6.416V5.506C133.29 5.25029 133.188 5.00505 133.007 4.82423C132.826 4.64341 132.581 4.54183 132.325 4.54183C132.07 4.54183 131.824 4.64341 131.644 4.82423C131.463 5.00505 131.361 5.25029 131.361 5.506V6.45211C129.495 6.7154 127.787 7.64504 126.552 9.0694C125.318 10.4938 124.64 12.3167 124.645 14.2016V17.7693C124.554 18.9807 124.223 20.1617 123.67 21.2432C123.172 22.0249 122.572 22.7366 121.886 23.3593L121.64 23.576V25.6127H143.162V23.576Z" fill="#003952"/>
<path d="M141.104 11.2043C143.098 11.2043 144.715 9.58759 144.715 7.59323C144.715 5.59887 143.098 3.98212 141.104 3.98212C139.11 3.98212 137.493 5.59887 137.493 7.59323C137.493 9.58759 139.11 11.2043 141.104 11.2043Z" fill="#66B25D"/>
<g clip-path="url(#clip0_0_224)">
<rect x="0.355225" y="5" width="22" height="22" rx="3" fill="white"/>
<path d="M0.355225 5V27H22.3552V5H0.355225Z" fill="#012169"/>
<path d="M0.355225 5L22.3552 27L0.355225 5ZM22.3552 5L0.355225 27L22.3552 5Z" fill="white"/>
<path fill-rule="evenodd" clip-rule="evenodd" d="M8.89555 16L-0.136719 6.96774L0.847152 3.03226L11.3552 13.5403L21.8633 3.03226L22.8472 6.96774L13.8149 16L22.8472 25.0323L21.8633 28.9677L11.3552 18.4597L0.847152 28.9677L-0.136719 25.0323L8.89555 16Z" fill="white"/>
<path d="M0.355225 5L22.3552 27L0.355225 5ZM22.3552 5L0.355225 27L22.3552 5Z" fill="white"/>
<path fill-rule="evenodd" clip-rule="evenodd" d="M9.71539 16L0.0272217 6.31183L0.683135 3.68817L11.3552 14.3602L22.0272 3.68817L22.6831 6.31183L12.995 16L22.6831 25.6882L22.0272 28.3118L11.3552 17.6398L0.683135 28.3118L0.0272217 25.6882L9.71539 16Z" fill="#C8102E"/>
<path d="M11.3552 5V27V5ZM0.355225 16H22.3552H0.355225Z" fill="white"/>
<path fill-rule="evenodd" clip-rule="evenodd" d="M13.1886 17.7417V27H9.52189V17.7417H0.355225V13.9833H9.52189V5H13.1886V13.9833H22.3552V17.7417H13.1886Z" fill="white"/>
<path d="M11.3552 5V27V5ZM0.355225 16H22.3552H0.355225Z" fill="white"/>
<path fill-rule="evenodd" clip-rule="evenodd" d="M12.4552 17.1V27H10.2552V17.1H0.355225V14.9H10.2552V5H12.4552V14.9H22.3552V17.1H12.4552Z" fill="#C8102E"/>
</g>
<path d="M77.3552 13.8576L82.4976 19L87.6401 13.8576L86.7831 13L82.4976 17.2861L78.2122 13L77.3552 13.8576Z" fill="#1F1F1F"/>
<path d="M33.4602 21V12.004H38.9332V12.888H34.4612V15.995H38.1532V16.866H34.4612V20.116H38.9332V21H33.4602ZM41.4518 21H40.4768V14.5H41.4388V14.955C42.1408 14.565 42.8124 14.37 43.4538 14.37C44.3204 14.37 44.9011 14.604 45.1958 15.072C45.4991 15.54 45.6508 16.372 45.6508 17.568V21H44.6888V17.594C44.6888 16.6927 44.5978 16.0773 44.4158 15.748C44.2424 15.41 43.8654 15.241 43.2848 15.241C43.0074 15.241 42.7128 15.2843 42.4008 15.371C42.0974 15.449 41.8634 15.527 41.6988 15.605L41.4518 15.722V21ZM49.9682 24.055C48.9282 24.055 48.2002 23.912 47.7842 23.626C47.3769 23.3487 47.1732 22.8373 47.1732 22.092C47.1732 21.7367 47.2512 21.4463 47.4072 21.221C47.5632 21.0043 47.8275 20.7573 48.2002 20.48C47.9575 20.3153 47.8362 20.0163 47.8362 19.583C47.8362 19.4357 47.9445 19.1627 48.1612 18.764L48.2782 18.556C47.5935 18.244 47.2512 17.5897 47.2512 16.593C47.2512 15.111 48.0615 14.37 49.6822 14.37C50.0982 14.37 50.4839 14.4133 50.8392 14.5L51.0342 14.539L52.9582 14.487V15.319L51.7232 15.293C52.0092 15.579 52.1522 16.0123 52.1522 16.593C52.1522 17.4077 51.9485 17.9797 51.5412 18.309C51.1425 18.6297 50.5099 18.79 49.6432 18.79C49.4092 18.79 49.1969 18.7727 49.0062 18.738C48.8502 19.1193 48.7722 19.3663 48.7722 19.479C48.7722 19.7477 48.8545 19.9167 49.0192 19.986C49.1839 20.0467 49.6822 20.077 50.5142 20.077C51.3462 20.077 51.9442 20.207 52.3082 20.467C52.6722 20.727 52.8542 21.234 52.8542 21.988C52.8542 23.366 51.8922 24.055 49.9682 24.055ZM48.1352 22.014C48.1352 22.4733 48.2609 22.7897 48.5122 22.963C48.7722 23.145 49.2445 23.236 49.9292 23.236C50.6225 23.236 51.1165 23.1407 51.4112 22.95C51.7145 22.7593 51.8662 22.4387 51.8662 21.988C51.8662 21.546 51.7579 21.26 51.5412 21.13C51.3245 21 50.8999 20.935 50.2672 20.935L48.8632 20.87C48.5772 21.078 48.3822 21.26 48.2782 21.416C48.1829 21.572 48.1352 21.7713 48.1352 22.014ZM48.2262 16.593C48.2262 17.1043 48.3389 17.4683 48.5642 17.685C48.7982 17.9017 49.1795 18.01 49.7082 18.01C50.2369 18.01 50.6139 17.9017 50.8392 17.685C51.0645 17.4683 51.1772 17.1043 51.1772 16.593C51.1772 16.073 51.0645 15.7047 50.8392 15.488C50.6139 15.2713 50.2369 15.163 49.7082 15.163C49.1795 15.163 48.7982 15.2757 48.5642 15.501C48.3389 15.7177 48.2262 16.0817 48.2262 16.593ZM54.2149 21V11.666H55.1899V21H54.2149ZM57.1457 21V14.5H58.1207V21H57.1457ZM57.1457 13.031V11.9H58.1207V13.031H57.1457ZM62.0305 15.241C61.0858 15.241 60.6135 15.5703 60.6135 16.229C60.6135 16.5323 60.7218 16.749 60.9385 16.879C61.1551 17.0003 61.6491 17.1303 62.4205 17.269C63.1918 17.399 63.7378 17.5853 64.0585 17.828C64.3791 18.0707 64.5395 18.5257 64.5395 19.193C64.5395 19.8603 64.3228 20.35 63.8895 20.662C63.4648 20.974 62.8408 21.13 62.0175 21.13C61.4801 21.13 60.8475 21.0693 60.1195 20.948L59.7295 20.883L59.7815 20.038C60.7695 20.1853 61.5148 20.259 62.0175 20.259C62.5201 20.259 62.9015 20.181 63.1615 20.025C63.4301 19.8603 63.5645 19.5917 63.5645 19.219C63.5645 18.8377 63.4518 18.582 63.2265 18.452C63.0011 18.3133 62.5071 18.1833 61.7445 18.062C60.9818 17.9407 60.4401 17.763 60.1195 17.529C59.7988 17.295 59.6385 16.8617 59.6385 16.229C59.6385 15.5963 59.8595 15.1283 60.3015 14.825C60.7521 14.5217 61.3111 14.37 61.9785 14.37C62.5071 14.37 63.1701 14.4307 63.9675 14.552L64.3315 14.617L64.3055 15.449C63.3435 15.3103 62.5851 15.241 62.0305 15.241ZM67.0074 21H66.0324V11.666H67.0074V14.864C67.7008 14.5347 68.3681 14.37 69.0094 14.37C69.8761 14.37 70.4568 14.604 70.7514 15.072C71.0548 15.54 71.2064 16.372 71.2064 17.568V21H70.2314V17.594C70.2314 16.6927 70.1404 16.0773 69.9584 15.748C69.7851 15.41 69.4124 15.241 68.8404 15.241C68.2944 15.241 67.7658 15.3407 67.2544 15.54L67.0074 15.631V21Z" fill="#1F1F1F"/>
<defs>
<linearGradient id="paint0_linear_0_224" x1="178.82" y1="0" x2="178.82" y2="31.7895" gradientUnits="userSpaceOnUse">
<stop stop-opacity="0.01"/>
<stop offset="0.8" stop-opacity="0.01"/>
<stop offset="1" stop-opacity="0.04"/>
</linearGradient>
<clipPath id="clip0_0_224">
<rect x="0.355225" y="5" width="22" height="22" rx="3" fill="white"/>
</clipPath>
</defs>
</svg>
