<svg width="99" height="22" viewBox="0 0 99 22" fill="none" xmlns="http://www.w3.org/2000/svg">
<path d="M43.316 15.625H40.105V6.629H43.316C44.7807 6.629 45.7513 7.20967 46.228 8.371C46.5053 9.03833 46.644 9.91367 46.644 10.997C46.644 13.259 46.0807 14.6847 44.954 15.274C44.5033 15.508 43.9573 15.625 43.316 15.625ZM45.617 10.997C45.617 9.27233 45.2313 8.19767 44.46 7.773C44.148 7.59967 43.7667 7.513 43.316 7.513H41.106V14.741H43.316C44.85 14.741 45.617 13.493 45.617 10.997ZM52.9039 11.088V14.416C52.9299 14.7367 53.1812 14.9273 53.6579 14.988L53.6189 15.755C52.9342 15.755 52.4186 15.5817 52.0719 15.235C51.2919 15.5817 50.5119 15.755 49.7319 15.755C49.1339 15.755 48.6789 15.586 48.3669 15.248C48.0549 14.91 47.8989 14.4247 47.8989 13.792C47.8989 13.1593 48.0592 12.6957 48.3799 12.401C48.7006 12.0977 49.2032 11.9113 49.8879 11.842L51.9289 11.647V11.088C51.9289 10.646 51.8336 10.3297 51.6429 10.139C51.4522 9.94833 51.1922 9.853 50.8629 9.853C50.1696 9.853 49.4502 9.89633 48.7049 9.983L48.3019 10.022L48.2629 9.281C49.2162 9.09033 50.0612 8.995 50.7979 8.995C51.5346 8.995 52.0676 9.164 52.3969 9.502C52.7349 9.84 52.9039 10.3687 52.9039 11.088ZM48.8999 13.74C48.8999 14.5373 49.2292 14.936 49.8879 14.936C50.4772 14.936 51.0579 14.8363 51.6299 14.637L51.9289 14.533V12.388L50.0049 12.57C49.6149 12.6047 49.3332 12.7173 49.1599 12.908C48.9866 13.0987 48.8999 13.376 48.8999 13.74ZM56.8686 9.866C55.9239 9.866 55.4516 10.1953 55.4516 10.854C55.4516 11.1573 55.5599 11.374 55.7766 11.504C55.9933 11.6253 56.4873 11.7553 57.2586 11.894C58.0299 12.024 58.5759 12.2103 58.8966 12.453C59.2173 12.6957 59.3776 13.1507 59.3776 13.818C59.3776 14.4853 59.1609 14.975 58.7276 15.287C58.3029 15.599 57.6789 15.755 56.8556 15.755C56.3183 15.755 55.6856 15.6943 54.9576 15.573L54.5676 15.508L54.6196 14.663C55.6076 14.8103 56.3529 14.884 56.8556 14.884C57.3583 14.884 57.7396 14.806 57.9996 14.65C58.2683 14.4853 58.4026 14.2167 58.4026 13.844C58.4026 13.4627 58.2899 13.207 58.0646 13.077C57.8393 12.9383 57.3453 12.8083 56.5826 12.687C55.8199 12.5657 55.2783 12.388 54.9576 12.154C54.6369 11.92 54.4766 11.4867 54.4766 10.854C54.4766 10.2213 54.6976 9.75333 55.1396 9.45C55.5903 9.14667 56.1493 8.995 56.8166 8.995C57.3453 8.995 58.0083 9.05567 58.8056 9.177L59.1696 9.242L59.1436 10.074C58.1816 9.93533 57.4233 9.866 56.8686 9.866ZM61.8456 15.625H60.8706V6.291H61.8456V9.489C62.5389 9.15967 63.2062 8.995 63.8476 8.995C64.7142 8.995 65.2949 9.229 65.5896 9.697C65.8929 10.165 66.0446 10.997 66.0446 12.193V15.625H65.0696V12.219C65.0696 11.3177 64.9786 10.7023 64.7966 10.373C64.6232 10.035 64.2506 9.866 63.6786 9.866C63.1326 9.866 62.6039 9.96567 62.0926 10.165L61.8456 10.256V15.625ZM70.726 8.995C71.6013 8.995 72.2123 9.24633 72.559 9.749C72.9143 10.243 73.092 11.114 73.092 12.362C73.092 13.61 72.871 14.4897 72.429 15.001C71.9957 15.5037 71.194 15.755 70.024 15.755C69.66 15.755 69.0577 15.7203 68.217 15.651L67.853 15.612V6.291H68.815V9.45C69.4737 9.14667 70.1107 8.995 70.726 8.995ZM70.011 14.884C70.8603 14.884 71.4193 14.6933 71.688 14.312C71.9653 13.922 72.104 13.2677 72.104 12.349C72.104 11.4303 71.9957 10.789 71.779 10.425C71.5623 10.0523 71.1767 9.866 70.622 9.866C70.1193 9.866 69.6037 9.96133 69.075 10.152L68.815 10.243V14.819C69.3783 14.8623 69.777 14.884 70.011 14.884ZM74.4098 12.362C74.4098 11.1747 74.6221 10.3167 75.0468 9.788C75.4714 9.25933 76.1864 8.995 77.1918 8.995C78.2058 8.995 78.9208 9.25933 79.3368 9.788C79.7614 10.3167 79.9738 11.1747 79.9738 12.362C79.9738 13.5493 79.7744 14.4117 79.3758 14.949C78.9771 15.4863 78.2491 15.755 77.1918 15.755C76.1344 15.755 75.4064 15.4863 75.0078 14.949C74.6091 14.4117 74.4098 13.5493 74.4098 12.362ZM75.4108 12.349C75.4108 13.2937 75.5234 13.9567 75.7488 14.338C75.9828 14.7193 76.4638 14.91 77.1918 14.91C77.9284 14.91 78.4094 14.7237 78.6348 14.351C78.8601 13.9697 78.9728 13.3023 78.9728 12.349C78.9728 11.3957 78.8471 10.7413 78.5958 10.386C78.3444 10.022 77.8764 9.84 77.1918 9.84C76.5158 9.84 76.0478 10.022 75.7878 10.386C75.5364 10.7413 75.4108 11.3957 75.4108 12.349ZM86.1529 11.088V14.416C86.1789 14.7367 86.4303 14.9273 86.9069 14.988L86.8679 15.755C86.1833 15.755 85.6676 15.5817 85.3209 15.235C84.5409 15.5817 83.7609 15.755 82.9809 15.755C82.3829 15.755 81.9279 15.586 81.6159 15.248C81.3039 14.91 81.1479 14.4247 81.1479 13.792C81.1479 13.1593 81.3083 12.6957 81.6289 12.401C81.9496 12.0977 82.4523 11.9113 83.1369 11.842L85.1779 11.647V11.088C85.1779 10.646 85.0826 10.3297 84.8919 10.139C84.7013 9.94833 84.4413 9.853 84.1119 9.853C83.4186 9.853 82.6993 9.89633 81.9539 9.983L81.5509 10.022L81.5119 9.281C82.4653 9.09033 83.3103 8.995 84.0469 8.995C84.7836 8.995 85.3166 9.164 85.6459 9.502C85.9839 9.84 86.1529 10.3687 86.1529 11.088ZM82.1489 13.74C82.1489 14.5373 82.4783 14.936 83.1369 14.936C83.7263 14.936 84.3069 14.8363 84.8789 14.637L85.1779 14.533V12.388L83.2539 12.57C82.8639 12.6047 82.5823 12.7173 82.4089 12.908C82.2356 13.0987 82.1489 13.376 82.1489 13.74ZM88.0766 15.625V9.125H89.0386V10.009C89.7926 9.489 90.5856 9.14667 91.4176 8.982V9.97C91.0536 10.0393 90.6723 10.1477 90.2736 10.295C89.8836 10.4423 89.5846 10.5723 89.3766 10.685L89.0516 10.854V15.625H88.0766ZM97.3977 6.291V15.625H96.4357V15.183C95.7684 15.5643 95.1097 15.755 94.4597 15.755C94.1131 15.755 93.8097 15.7117 93.5497 15.625C93.2897 15.5383 93.0471 15.3823 92.8217 15.157C92.3537 14.689 92.1197 13.8267 92.1197 12.57C92.1197 11.3047 92.3277 10.3947 92.7437 9.84C93.1684 9.27667 93.8661 8.995 94.8367 8.995C95.3394 8.995 95.8724 9.05133 96.4357 9.164V6.291H97.3977ZM93.5757 14.455C93.7144 14.6197 93.8617 14.7323 94.0177 14.793C94.1737 14.8537 94.3731 14.884 94.6157 14.884C94.8671 14.884 95.1444 14.845 95.4477 14.767C95.7597 14.6803 96.0024 14.598 96.1757 14.52L96.4357 14.403V9.996C95.8811 9.892 95.3654 9.84 94.8887 9.84C94.2301 9.84 93.7707 10.0523 93.5107 10.477C93.2507 10.893 93.1207 11.543 93.1207 12.427C93.1207 13.4323 93.2724 14.1083 93.5757 14.455Z" fill="#1F1F1F"/>
<path d="M17.2283 6.9941L12.9301 11.2196C12.4664 10.9962 11.9388 10.944 11.4403 11.072C10.9418 11.2001 10.5047 11.5002 10.2061 11.9194C9.90757 12.3386 9.76679 12.8498 9.80867 13.3628C9.85056 13.8757 10.0724 14.3573 10.435 14.7225C10.7977 15.0877 11.2777 15.313 11.7903 15.3585C12.3029 15.404 12.8152 15.2668 13.2364 14.9712C13.6577 14.6756 13.961 14.2406 14.0925 13.7431C14.2241 13.2455 14.1756 12.7175 13.9555 12.2523L18.261 8.02683L17.2283 6.9941Z" fill="#003952"/>
<path d="M12.0065 1.12501C9.71754 1.12239 7.47566 1.77485 5.54561 3.00535C3.61556 4.23585 2.07796 5.99298 1.1144 8.06922C0.150845 10.1455 -0.198422 12.4541 0.107852 14.7224C0.414127 16.9908 1.36315 19.1241 2.84284 20.8705L3.06102 21.125H20.9519L21.1701 20.8705C22.6498 19.1241 23.5988 16.9908 23.9051 14.7224C24.2114 12.4541 23.8621 10.1455 22.8985 8.06922C21.935 5.99298 20.3974 4.23585 18.4673 3.00535C16.5373 1.77485 14.2954 1.12239 12.0065 1.12501ZM20.2537 19.6705H3.7592C2.45424 18.0375 1.66665 16.0521 1.49738 13.9686H4.00647V12.5141H1.49738C1.61918 10.2048 2.50135 8.00064 4.00647 6.24501L5.78829 8.02682L6.81374 7.00137L5.04647 5.21228C6.77976 3.68031 8.97121 2.76486 11.2792 2.60864V5.1541H12.7337V2.61592C15.2832 2.8008 17.6782 3.90728 19.4715 5.72873C21.2649 7.55019 22.334 9.96209 22.4792 12.5141H19.9483V13.9686H22.5156C22.3463 16.0521 21.5587 18.0375 20.2537 19.6705Z" fill="#003952"/>
</svg>
