<svg width="76" height="31" viewBox="0 0 76 31" fill="none" xmlns="http://www.w3.org/2000/svg">
<path d="M4.425 22.25H2.205V8.55H4.425V14.73L6.465 14.57L9.265 8.55H11.805L8.425 15.43L11.945 22.25H9.365L6.465 16.53L4.425 16.67V22.25ZM13.8652 22.25V8.55H16.0852V22.25H13.8652ZM18.0563 22.25L21.4363 8.55H25.8563L29.2563 22.25H27.0163L26.2763 19.31H21.0163L20.2763 22.25H18.0563ZM23.1563 10.41L21.4563 17.35H25.8363L24.1563 10.41H23.1563ZM36.075 14.11H33.315V18.51C33.315 19.3233 33.375 19.8633 33.495 20.13C33.615 20.3967 33.9217 20.53 34.415 20.53L36.055 20.47L36.155 22.21C35.2617 22.3833 34.5817 22.47 34.115 22.47C32.9817 22.47 32.2017 22.21 31.775 21.69C31.3617 21.17 31.155 20.19 31.155 18.75V14.11H29.875V12.25H31.155V9.35H33.315V12.25H36.075V14.11ZM44.983 20.45L45.543 20.39L45.583 22.01C44.063 22.3167 42.7163 22.47 41.543 22.47C40.063 22.47 38.9963 22.0633 38.343 21.25C37.703 20.4367 37.383 19.1367 37.383 17.35C37.383 13.8033 38.8296 12.03 41.723 12.03C44.523 12.03 45.923 13.5567 45.923 16.61L45.783 18.17H39.583C39.5963 18.9967 39.7763 19.6033 40.123 19.99C40.4696 20.3767 41.1163 20.57 42.063 20.57C43.0096 20.57 43.983 20.53 44.983 20.45ZM43.783 16.49C43.783 15.5033 43.623 14.8167 43.303 14.43C42.9963 14.03 42.4696 13.83 41.723 13.83C40.9763 13.83 40.4296 14.0367 40.083 14.45C39.7496 14.8633 39.5763 15.5433 39.563 16.49H43.783ZM51.7592 12.03C52.4659 12.03 53.2992 12.1233 54.2592 12.31L54.7592 12.41L54.6792 14.13C53.6259 14.0233 52.8459 13.97 52.3392 13.97C51.3259 13.97 50.6459 14.1967 50.2992 14.65C49.9526 15.1033 49.7792 15.9567 49.7792 17.21C49.7792 18.4633 49.9459 19.33 50.2792 19.81C50.6126 20.29 51.3059 20.53 52.3592 20.53L54.6992 20.37L54.7592 22.11C53.4126 22.35 52.3992 22.47 51.7192 22.47C50.1992 22.47 49.1259 22.0633 48.4992 21.25C47.8859 20.4233 47.5792 19.0767 47.5792 17.21C47.5792 15.3433 47.9059 14.0167 48.5592 13.23C49.2126 12.43 50.2792 12.03 51.7592 12.03Z" fill="#1E1C21"/>
<path d="M75.905 17.9403L71.765 22.0803L67.625 17.9403L68.3149 17.2499L71.765 20.7005L75.2151 17.2499L75.905 17.9403Z" fill="#1E1C21"/>
<path d="M75.905 12.5597L71.765 8.41968L67.625 12.5597L68.3149 13.2501L71.765 9.79952L75.2151 13.2501L75.905 12.5597Z" fill="#1E1C21"/>
</svg>
