<svg width="181" height="65" viewBox="0 0 181 65" fill="none" xmlns="http://www.w3.org/2000/svg">
<g filter="url(#filter0_d_0_29)">
<rect x="15.625" y="10.25" width="150" height="34" rx="5" fill="#003952"/>
<rect x="16.125" y="10.75" width="149" height="33" rx="4.5" stroke="black" stroke-opacity="0.1"/>
</g>
<path d="M59.925 29.694V27.774H62.629V25.086H64.549V27.774H67.285V29.694H64.549V32.414H62.629V29.694H59.925ZM71.8538 32.75L74.0508 23.845H76.9238L79.1338 32.75H77.6778L77.1968 30.839H73.7778L73.2968 32.75H71.8538ZM75.1688 25.054L74.0638 29.565H76.9108L75.8188 25.054H75.1688ZM85.4745 23.546V32.75H84.0705V32.412C83.4378 32.7327 82.8572 32.893 82.3285 32.893C81.4792 32.893 80.8552 32.6373 80.4565 32.126C80.0665 31.6147 79.8715 30.7567 79.8715 29.552C79.8715 28.3473 80.0882 27.472 80.5215 26.926C80.9635 26.38 81.6482 26.107 82.5755 26.107C82.8875 26.107 83.3815 26.1633 84.0575 26.276V23.546H85.4745ZM83.8365 31.398L84.0575 31.307V27.459C83.5375 27.3723 83.0565 27.329 82.6145 27.329C81.7392 27.329 81.3015 28.057 81.3015 29.513C81.3015 30.3103 81.4012 30.865 81.6005 31.177C81.8085 31.4803 82.1335 31.632 82.5755 31.632C83.0175 31.632 83.4378 31.554 83.8365 31.398ZM92.495 23.546V32.75H91.091V32.412C90.4583 32.7327 89.8777 32.893 89.349 32.893C88.4997 32.893 87.8757 32.6373 87.477 32.126C87.087 31.6147 86.892 30.7567 86.892 29.552C86.892 28.3473 87.1087 27.472 87.542 26.926C87.984 26.38 88.6687 26.107 89.596 26.107C89.908 26.107 90.402 26.1633 91.078 26.276V23.546H92.495ZM90.857 31.398L91.078 31.307V27.459C90.558 27.3723 90.077 27.329 89.635 27.329C88.7597 27.329 88.322 28.057 88.322 29.513C88.322 30.3103 88.4217 30.865 88.621 31.177C88.829 31.4803 89.154 31.632 89.596 31.632C90.038 31.632 90.4583 31.554 90.857 31.398ZM98.615 29.903C98.615 31.0557 99.2216 31.632 100.435 31.632C101.648 31.632 102.255 31.0557 102.255 29.903V23.845H103.711V29.877C103.711 30.9257 103.434 31.6927 102.879 32.178C102.333 32.6547 101.514 32.893 100.422 32.893C99.3386 32.893 98.524 32.6547 97.978 32.178C97.432 31.6927 97.159 30.9257 97.159 29.877V23.845H98.615V29.903ZM109.971 27.589C108.948 27.4503 108.207 27.381 107.748 27.381C107.288 27.381 106.968 27.4373 106.786 27.55C106.612 27.654 106.526 27.823 106.526 28.057C106.526 28.291 106.621 28.4557 106.812 28.551C107.011 28.6463 107.47 28.759 108.19 28.889C108.918 29.0103 109.433 29.2053 109.737 29.474C110.04 29.7427 110.192 30.2193 110.192 30.904C110.192 31.5887 109.971 32.0913 109.529 32.412C109.095 32.7327 108.458 32.893 107.618 32.893C107.089 32.893 106.422 32.8193 105.616 32.672L105.213 32.607L105.265 31.424C106.305 31.5627 107.054 31.632 107.514 31.632C107.973 31.632 108.298 31.5757 108.489 31.463C108.688 31.3503 108.788 31.164 108.788 30.904C108.788 30.644 108.692 30.4663 108.502 30.371C108.32 30.267 107.873 30.1587 107.163 30.046C106.461 29.9247 105.945 29.7383 105.616 29.487C105.286 29.2357 105.122 28.7763 105.122 28.109C105.122 27.4417 105.347 26.9433 105.798 26.614C106.257 26.2847 106.842 26.12 107.553 26.12C108.107 26.12 108.788 26.1893 109.594 26.328L109.997 26.406L109.971 27.589ZM116.181 31.58L116.545 31.541L116.571 32.594C115.583 32.7933 114.708 32.893 113.945 32.893C112.983 32.893 112.29 32.6287 111.865 32.1C111.449 31.5713 111.241 30.7263 111.241 29.565C111.241 27.2597 112.182 26.107 114.062 26.107C115.882 26.107 116.792 27.0993 116.792 29.084L116.701 30.098H112.671C112.68 30.6353 112.797 31.0297 113.022 31.281C113.248 31.5323 113.668 31.658 114.283 31.658C114.899 31.658 115.531 31.632 116.181 31.58ZM115.401 29.006C115.401 28.3647 115.297 27.9183 115.089 27.667C114.89 27.407 114.548 27.277 114.062 27.277C113.577 27.277 113.222 27.4113 112.996 27.68C112.78 27.9487 112.667 28.3907 112.658 29.006H115.401ZM118.155 32.75V26.25H119.559V27.03C120.296 26.5533 121.032 26.2457 121.769 26.107V27.524C121.024 27.6713 120.387 27.862 119.858 28.096L119.572 28.213V32.75H118.155Z" fill="white"/>
<defs>
<filter id="filter0_d_0_29" x="0.625" y="0.25" width="180" height="64" filterUnits="userSpaceOnUse" color-interpolation-filters="sRGB">
<feFlood flood-opacity="0" result="BackgroundImageFix"/>
<feColorMatrix in="SourceAlpha" type="matrix" values="0 0 0 0 0 0 0 0 0 0 0 0 0 0 0 0 0 0 127 0" result="hardAlpha"/>
<feOffset dy="5"/>
<feGaussianBlur stdDeviation="7.5"/>
<feComposite in2="hardAlpha" operator="out"/>
<feColorMatrix type="matrix" values="0 0 0 0 0 0 0 0 0 0 0 0 0 0 0 0 0 0 0.05 0"/>
<feBlend mode="normal" in2="BackgroundImageFix" result="effect1_dropShadow_0_29"/>
<feBlend mode="normal" in="SourceGraphic" in2="effect1_dropShadow_0_29" result="shape"/>
</filter>
</defs>
</svg>
