<svg width="124" height="21" viewBox="0 0 124 21" fill="none" xmlns="http://www.w3.org/2000/svg">
<path d="M38.169 7.40088V6.50388H44.669V7.40088H41.926V15.4999H40.938V7.40088H38.169ZM46.7538 15.4999H45.7788V6.16588H46.7538V9.36388C47.4471 9.03454 48.1144 8.86988 48.7558 8.86988C49.6224 8.86988 50.2031 9.10388 50.4978 9.57188C50.8011 10.0399 50.9528 10.8719 50.9528 12.0679V15.4999H49.9778V12.0939C49.9778 11.1925 49.8868 10.5772 49.7048 10.2479C49.5314 9.90988 49.1588 9.74088 48.5868 9.74088C48.0408 9.74088 47.5121 9.84054 47.0008 10.0399L46.7538 10.1309V15.4999ZM57.1812 14.6939L57.5582 14.6549L57.5842 15.4219C56.5962 15.5605 55.7512 15.6299 55.0492 15.6299C54.1132 15.6299 53.4502 15.3612 53.0602 14.8239C52.6702 14.2779 52.4752 13.4329 52.4752 12.2889C52.4752 10.0095 53.3809 8.86988 55.1922 8.86988C56.0675 8.86988 56.7219 9.11688 57.1552 9.61088C57.5885 10.0962 57.8052 10.8632 57.8052 11.9119L57.7532 12.6529H53.4632C53.4632 13.3722 53.5932 13.9052 53.8532 14.2519C54.1132 14.5985 54.5639 14.7719 55.2052 14.7719C55.8552 14.7719 56.5139 14.7459 57.1812 14.6939ZM56.8302 11.8729C56.8302 11.0755 56.7002 10.5122 56.4402 10.1829C56.1889 9.85354 55.7729 9.68888 55.1922 9.68888C54.6202 9.68888 54.1869 9.86221 53.8922 10.2089C53.6062 10.5555 53.4589 11.1102 53.4502 11.8729H56.8302ZM60.2997 15.4999H59.3247V8.99988H60.2867V9.45488C60.9367 9.06488 61.5693 8.86988 62.1847 8.86988C62.9907 8.86988 63.554 9.09088 63.8747 9.53288C64.1607 9.35954 64.529 9.20788 64.9797 9.07788C65.439 8.93921 65.842 8.86988 66.1887 8.86988C67.0553 8.86988 67.636 9.10388 67.9307 9.57188C68.234 10.0312 68.3857 10.8632 68.3857 12.0679V15.4999H67.4107V12.0939C67.4107 11.1925 67.324 10.5772 67.1507 10.2479C66.9773 9.90988 66.609 9.74088 66.0457 9.74088C65.7597 9.74088 65.465 9.78421 65.1617 9.87088C64.8583 9.94888 64.6243 10.0269 64.4597 10.1049L64.2127 10.2219C64.3253 10.5079 64.3817 11.1405 64.3817 12.1199V15.4999H63.4067V12.1459C63.4067 11.2099 63.32 10.5772 63.1467 10.2479C62.982 9.90988 62.6137 9.74088 62.0417 9.74088C61.7643 9.74088 61.4783 9.78421 61.1837 9.87088C60.8977 9.94888 60.6767 10.0269 60.5207 10.1049L60.2997 10.2219V15.4999ZM74.6119 14.6939L74.9889 14.6549L75.0149 15.4219C74.0269 15.5605 73.1819 15.6299 72.4799 15.6299C71.5439 15.6299 70.8809 15.3612 70.4909 14.8239C70.1009 14.2779 69.9059 13.4329 69.9059 12.2889C69.9059 10.0095 70.8115 8.86988 72.6229 8.86988C73.4982 8.86988 74.1525 9.11688 74.5859 9.61088C75.0192 10.0962 75.2359 10.8632 75.2359 11.9119L75.1839 12.6529H70.8939C70.8939 13.3722 71.0239 13.9052 71.2839 14.2519C71.5439 14.5985 71.9945 14.7719 72.6359 14.7719C73.2859 14.7719 73.9445 14.7459 74.6119 14.6939ZM74.2609 11.8729C74.2609 11.0755 74.1309 10.5122 73.8709 10.1829C73.6195 9.85354 73.2035 9.68888 72.6229 9.68888C72.0509 9.68888 71.6175 9.86221 71.3229 10.2089C71.0369 10.5555 70.8895 11.1102 70.8809 11.8729H74.2609ZM82.2638 7.24488C80.9638 7.24488 80.3138 7.73454 80.3138 8.71388C80.3138 9.25988 80.4611 9.63688 80.7558 9.84488C81.0591 10.0442 81.6658 10.2479 82.5758 10.4559C83.4944 10.6552 84.1444 10.9195 84.5258 11.2489C84.9071 11.5695 85.0978 12.1025 85.0978 12.8479C85.0978 14.6939 84.1401 15.6169 82.2248 15.6169C81.5921 15.6169 80.7991 15.5432 79.8458 15.3959L79.3778 15.3309L79.4818 14.4989C80.6604 14.6549 81.5574 14.7329 82.1728 14.7329C83.4554 14.7329 84.0968 14.1305 84.0968 12.9259C84.0968 12.4405 83.9538 12.0939 83.6678 11.8859C83.3904 11.6692 82.8661 11.4872 82.0948 11.3399C81.0808 11.1232 80.3614 10.8459 79.9368 10.5079C79.5121 10.1612 79.2998 9.58488 79.2998 8.77888C79.2998 7.16688 80.2661 6.36088 82.1988 6.36088C82.8314 6.36088 83.5898 6.42588 84.4738 6.55588L84.9158 6.62088L84.8248 7.46588C83.6201 7.31854 82.7664 7.24488 82.2638 7.24488ZM91.0777 14.6939L91.4547 14.6549L91.4807 15.4219C90.4927 15.5605 89.6477 15.6299 88.9457 15.6299C88.0097 15.6299 87.3467 15.3612 86.9567 14.8239C86.5667 14.2779 86.3717 13.4329 86.3717 12.2889C86.3717 10.0095 87.2773 8.86988 89.0887 8.86988C89.964 8.86988 90.6183 9.11688 91.0517 9.61088C91.485 10.0962 91.7017 10.8632 91.7017 11.9119L91.6497 12.6529H87.3597C87.3597 13.3722 87.4897 13.9052 87.7497 14.2519C88.0097 14.5985 88.4603 14.7719 89.1017 14.7719C89.7517 14.7719 90.4103 14.7459 91.0777 14.6939ZM90.7267 11.8729C90.7267 11.0755 90.5967 10.5122 90.3367 10.1829C90.0853 9.85354 89.6693 9.68888 89.0887 9.68888C88.5167 9.68888 88.0833 9.86221 87.7887 10.2089C87.5027 10.5555 87.3553 11.1102 87.3467 11.8729H90.7267ZM96.5501 9.84488H94.4831V12.9519C94.4831 13.6972 94.5351 14.1869 94.6391 14.4209C94.7517 14.6549 95.0117 14.7719 95.4191 14.7719L96.5761 14.6939L96.6411 15.4999C96.0604 15.5952 95.6184 15.6429 95.3151 15.6429C94.6391 15.6429 94.1711 15.4782 93.9111 15.1489C93.6511 14.8195 93.5211 14.1912 93.5211 13.2639V9.84488H92.5981V8.99988H93.5211V7.01088H94.4831V8.99988H96.5501V9.84488ZM101.108 9.84488H99.0407V12.9519C99.0407 13.6972 99.0927 14.1869 99.1967 14.4209C99.3094 14.6549 99.5694 14.7719 99.9767 14.7719L101.134 14.6939L101.199 15.4999C100.618 15.5952 100.176 15.6429 99.8727 15.6429C99.1967 15.6429 98.7287 15.4782 98.4687 15.1489C98.2087 14.8195 98.0787 14.1912 98.0787 13.2639V9.84488H97.1557V8.99988H98.0787V7.01088H99.0407V8.99988H101.108V9.84488ZM102.298 15.4999V8.99988H103.273V15.4999H102.298ZM102.298 7.53088V6.39988H103.273V7.53088H102.298ZM106.117 15.4999H105.142V8.99988H106.104V9.45488C106.806 9.06488 107.478 8.86988 108.119 8.86988C108.986 8.86988 109.566 9.10388 109.861 9.57188C110.164 10.0399 110.316 10.8719 110.316 12.0679V15.4999H109.354V12.0939C109.354 11.1925 109.263 10.5772 109.081 10.2479C108.908 9.90988 108.531 9.74088 107.95 9.74088C107.673 9.74088 107.378 9.78421 107.066 9.87088C106.763 9.94888 106.529 10.0269 106.364 10.1049L106.117 10.2219V15.4999ZM114.633 18.5549C113.593 18.5549 112.865 18.4119 112.449 18.1259C112.042 17.8485 111.838 17.3372 111.838 16.5919C111.838 16.2365 111.916 15.9462 112.072 15.7209C112.228 15.5042 112.493 15.2572 112.865 14.9799C112.623 14.8152 112.501 14.5162 112.501 14.0829C112.501 13.9355 112.61 13.6625 112.826 13.2639L112.943 13.0559C112.259 12.7439 111.916 12.0895 111.916 11.0929C111.916 9.61088 112.727 8.86988 114.347 8.86988C114.763 8.86988 115.149 8.91321 115.504 8.99988L115.699 9.03888L117.623 8.98688V9.81888L116.388 9.79288C116.674 10.0789 116.817 10.5122 116.817 11.0929C116.817 11.9075 116.614 12.4795 116.206 12.8089C115.808 13.1295 115.175 13.2899 114.308 13.2899C114.074 13.2899 113.862 13.2725 113.671 13.2379C113.515 13.6192 113.437 13.8662 113.437 13.9789C113.437 14.2475 113.52 14.4165 113.684 14.4859C113.849 14.5465 114.347 14.5769 115.179 14.5769C116.011 14.5769 116.609 14.7069 116.973 14.9669C117.337 15.2269 117.519 15.7339 117.519 16.4879C117.519 17.8659 116.557 18.5549 114.633 18.5549ZM112.8 16.5139C112.8 16.9732 112.926 17.2895 113.177 17.4629C113.437 17.6449 113.91 17.7359 114.594 17.7359C115.288 17.7359 115.782 17.6405 116.076 17.4499C116.38 17.2592 116.531 16.9385 116.531 16.4879C116.531 16.0459 116.423 15.7599 116.206 15.6299C115.99 15.4999 115.565 15.4349 114.932 15.4349L113.528 15.3699C113.242 15.5779 113.047 15.7599 112.943 15.9159C112.848 16.0719 112.8 16.2712 112.8 16.5139ZM112.891 11.0929C112.891 11.6042 113.004 11.9682 113.229 12.1849C113.463 12.4015 113.845 12.5099 114.373 12.5099C114.902 12.5099 115.279 12.4015 115.504 12.1849C115.73 11.9682 115.842 11.6042 115.842 11.0929C115.842 10.5729 115.73 10.2045 115.504 9.98788C115.279 9.77121 114.902 9.66288 114.373 9.66288C113.845 9.66288 113.463 9.77554 113.229 10.0009C113.004 10.2175 112.891 10.5815 112.891 11.0929ZM120.843 9.74088C119.899 9.74088 119.426 10.0702 119.426 10.7289C119.426 11.0322 119.535 11.2489 119.751 11.3789C119.968 11.5002 120.462 11.6302 121.233 11.7689C122.005 11.8989 122.551 12.0852 122.871 12.3279C123.192 12.5705 123.352 13.0255 123.352 13.6929C123.352 14.3602 123.136 14.8499 122.702 15.1619C122.278 15.4739 121.654 15.6299 120.83 15.6299C120.293 15.6299 119.66 15.5692 118.932 15.4479L118.542 15.3829L118.594 14.5379C119.582 14.6852 120.328 14.7589 120.83 14.7589C121.333 14.7589 121.714 14.6809 121.974 14.5249C122.243 14.3602 122.377 14.0915 122.377 13.7189C122.377 13.3375 122.265 13.0819 122.039 12.9519C121.814 12.8132 121.32 12.6832 120.557 12.5619C119.795 12.4405 119.253 12.2629 118.932 12.0289C118.612 11.7949 118.451 11.3615 118.451 10.7289C118.451 10.0962 118.672 9.62821 119.114 9.32488C119.565 9.02154 120.124 8.86988 120.791 8.86988C121.32 8.86988 121.983 8.93054 122.78 9.05188L123.144 9.11688L123.118 9.94888C122.156 9.81021 121.398 9.74088 120.843 9.74088Z" fill="#1F1F1F"/>
<path d="M18.7842 0.499878H3.22869C2.00314 0.499878 1.00647 1.49654 1.00647 2.7221V18.2777C1.00647 19.5032 2.00314 20.4999 3.22869 20.4999H18.7842C20.0098 20.4999 21.0065 19.5032 21.0065 18.2777V2.7221C21.0065 1.49654 20.0098 0.499878 18.7842 0.499878ZM18.7842 2.7221L18.7854 7.16654H3.22869V2.7221H18.7842ZM3.22869 9.38877H12.1176V18.2777H3.22869V9.38877ZM14.3398 18.2777V9.38877H18.7854L18.7865 18.2777H14.3398Z" fill="#003952" stroke="white" stroke-width="0.4"/>
</svg>
