<svg width="669" height="65" viewBox="0 0 669 65" fill="none" xmlns="http://www.w3.org/2000/svg">
<g filter="url(#filter0_d_0_51)">
<rect x="15.625" y="10.75" width="300" height="34" rx="5" fill="white"/>
<rect x="16.125" y="11.25" width="299" height="33" rx="4.5" stroke="black" stroke-opacity="0.1"/>
</g>
<path d="M52.213 23.995C50.913 23.995 50.263 24.4847 50.263 25.464C50.263 26.01 50.4103 26.387 50.705 26.595C51.0083 26.7943 51.615 26.998 52.525 27.206C53.4437 27.4053 54.0937 27.6697 54.475 27.999C54.8563 28.3197 55.047 28.8527 55.047 29.598C55.047 31.444 54.0893 32.367 52.174 32.367C51.5413 32.367 50.7483 32.2933 49.795 32.146L49.327 32.081L49.431 31.249C50.6097 31.405 51.5067 31.483 52.122 31.483C53.4047 31.483 54.046 30.8807 54.046 29.676C54.046 29.1907 53.903 28.844 53.617 28.636C53.3397 28.4193 52.8153 28.2373 52.044 28.09C51.03 27.8733 50.3107 27.596 49.886 27.258C49.4613 26.9113 49.249 26.335 49.249 25.529C49.249 23.917 50.2153 23.111 52.148 23.111C52.7807 23.111 53.539 23.176 54.423 23.306L54.865 23.371L54.774 24.216C53.5693 24.0687 52.7157 23.995 52.213 23.995ZM61.0269 31.444L61.4039 31.405L61.4299 32.172C60.4419 32.3107 59.5969 32.38 58.8949 32.38C57.9589 32.38 57.2959 32.1113 56.9059 31.574C56.5159 31.028 56.3209 30.183 56.3209 29.039C56.3209 26.7597 57.2266 25.62 59.0379 25.62C59.9132 25.62 60.5676 25.867 61.0009 26.361C61.4342 26.8463 61.6509 27.6133 61.6509 28.662L61.5989 29.403H57.3089C57.3089 30.1223 57.4389 30.6553 57.6989 31.002C57.9589 31.3487 58.4096 31.522 59.0509 31.522C59.7009 31.522 60.3596 31.496 61.0269 31.444ZM60.6759 28.623C60.6759 27.8257 60.5459 27.2623 60.2859 26.933C60.0346 26.6037 59.6186 26.439 59.0379 26.439C58.4659 26.439 58.0326 26.6123 57.7379 26.959C57.4519 27.3057 57.3046 27.8603 57.2959 28.623H60.6759ZM67.7594 27.713V31.041C67.7854 31.3617 68.0367 31.5523 68.5134 31.613L68.4744 32.38C67.7897 32.38 67.274 32.2067 66.9274 31.86C66.1474 32.2067 65.3674 32.38 64.5874 32.38C63.9894 32.38 63.5344 32.211 63.2224 31.873C62.9104 31.535 62.7544 31.0497 62.7544 30.417C62.7544 29.7843 62.9147 29.3207 63.2354 29.026C63.556 28.7227 64.0587 28.5363 64.7434 28.467L66.7844 28.272V27.713C66.7844 27.271 66.689 26.9547 66.4984 26.764C66.3077 26.5733 66.0477 26.478 65.7184 26.478C65.025 26.478 64.3057 26.5213 63.5604 26.608L63.1574 26.647L63.1184 25.906C64.0717 25.7153 64.9167 25.62 65.6534 25.62C66.39 25.62 66.923 25.789 67.2524 26.127C67.5904 26.465 67.7594 26.9937 67.7594 27.713ZM63.7554 30.365C63.7554 31.1623 64.0847 31.561 64.7434 31.561C65.3327 31.561 65.9134 31.4613 66.4854 31.262L66.7844 31.158V29.013L64.8604 29.195C64.4704 29.2297 64.1887 29.3423 64.0154 29.533C63.842 29.7237 63.7554 30.001 63.7554 30.365ZM69.6831 32.25V25.75H70.6451V26.634C71.3991 26.114 72.1921 25.7717 73.0241 25.607V26.595C72.6601 26.6643 72.2787 26.7727 71.8801 26.92C71.4901 27.0673 71.1911 27.1973 70.9831 27.31L70.6581 27.479V32.25H69.6831ZM76.4813 25.62C76.7673 25.62 77.2526 25.672 77.9373 25.776L78.2493 25.815L78.2103 26.608C77.5169 26.53 77.0056 26.491 76.6763 26.491C75.9396 26.491 75.4369 26.6687 75.1683 27.024C74.9083 27.3707 74.7783 28.0207 74.7783 28.974C74.7783 29.9187 74.8996 30.5773 75.1423 30.95C75.3936 31.3227 75.9093 31.509 76.6893 31.509L78.2233 31.392L78.2623 32.198C77.4563 32.3193 76.8539 32.38 76.4553 32.38C75.4413 32.38 74.7393 32.12 74.3493 31.6C73.9679 31.08 73.7773 30.2047 73.7773 28.974C73.7773 27.7347 73.9853 26.868 74.4013 26.374C74.8173 25.8713 75.5106 25.62 76.4813 25.62ZM80.6874 32.25H79.7124V22.916H80.6874V26.114C81.3807 25.7847 82.048 25.62 82.6894 25.62C83.556 25.62 84.1367 25.854 84.4314 26.322C84.7347 26.79 84.8864 27.622 84.8864 28.818V32.25H83.9114V28.844C83.9114 27.9427 83.8204 27.3273 83.6384 26.998C83.465 26.66 83.0924 26.491 82.5204 26.491C81.9744 26.491 81.4457 26.5907 80.9344 26.79L80.6874 26.881V32.25ZM90.6562 29.546C90.6562 30.846 91.3582 31.496 92.7622 31.496C93.4902 31.496 94.0362 31.3443 94.4002 31.041C94.7729 30.729 94.9592 30.2307 94.9592 29.546V23.254H95.9472V29.52C95.9472 30.5253 95.6786 31.2533 95.1412 31.704C94.6126 32.1547 93.8282 32.38 92.7882 32.38C91.7482 32.38 90.9639 32.1547 90.4352 31.704C89.9152 31.2533 89.6552 30.5253 89.6552 29.52V23.254H90.6562V29.546ZM99.895 26.491C98.9503 26.491 98.478 26.8203 98.478 27.479C98.478 27.7823 98.5863 27.999 98.803 28.129C99.0196 28.2503 99.5136 28.3803 100.285 28.519C101.056 28.649 101.602 28.8353 101.923 29.078C102.244 29.3207 102.404 29.7757 102.404 30.443C102.404 31.1103 102.187 31.6 101.754 31.912C101.329 32.224 100.705 32.38 99.882 32.38C99.3446 32.38 98.712 32.3193 97.984 32.198L97.594 32.133L97.646 31.288C98.634 31.4353 99.3793 31.509 99.882 31.509C100.385 31.509 100.766 31.431 101.026 31.275C101.295 31.1103 101.429 30.8417 101.429 30.469C101.429 30.0877 101.316 29.832 101.091 29.702C100.866 29.5633 100.372 29.4333 99.609 29.312C98.8463 29.1907 98.3046 29.013 97.984 28.779C97.6633 28.545 97.503 28.1117 97.503 27.479C97.503 26.8463 97.724 26.3783 98.166 26.075C98.6166 25.7717 99.1756 25.62 99.843 25.62C100.372 25.62 101.035 25.6807 101.832 25.802L102.196 25.867L102.17 26.699C101.208 26.5603 100.45 26.491 99.895 26.491ZM108.317 31.444L108.694 31.405L108.72 32.172C107.732 32.3107 106.887 32.38 106.185 32.38C105.249 32.38 104.586 32.1113 104.196 31.574C103.806 31.028 103.611 30.183 103.611 29.039C103.611 26.7597 104.517 25.62 106.328 25.62C107.203 25.62 107.858 25.867 108.291 26.361C108.724 26.8463 108.941 27.6133 108.941 28.662L108.889 29.403H104.599C104.599 30.1223 104.729 30.6553 104.989 31.002C105.249 31.3487 105.7 31.522 106.341 31.522C106.991 31.522 107.65 31.496 108.317 31.444ZM107.966 28.623C107.966 27.8257 107.836 27.2623 107.576 26.933C107.325 26.6037 106.909 26.439 106.328 26.439C105.756 26.439 105.323 26.6123 105.028 26.959C104.742 27.3057 104.595 27.8603 104.586 28.623H107.966ZM110.46 32.25V25.75H111.422V26.634C112.176 26.114 112.969 25.7717 113.801 25.607V26.595C113.437 26.6643 113.056 26.7727 112.657 26.92C112.267 27.0673 111.968 27.1973 111.76 27.31L111.435 27.479V32.25H110.46ZM117.98 23.254H121.243C122.136 23.254 122.803 23.4403 123.245 23.813C123.696 24.177 123.921 24.7533 123.921 25.542C123.921 26.1053 123.821 26.5473 123.622 26.868C123.431 27.18 123.145 27.427 122.764 27.609C123.717 27.9383 124.194 28.6447 124.194 29.728C124.194 30.6293 123.956 31.275 123.479 31.665C123.002 32.055 122.313 32.25 121.412 32.25H117.98V23.254ZM121.308 28.116H118.981V31.366H121.373C121.962 31.366 122.409 31.2447 122.712 31.002C123.024 30.7507 123.18 30.313 123.18 29.689C123.18 29.3597 123.115 29.0823 122.985 28.857C122.864 28.6317 122.699 28.4713 122.491 28.376C122.11 28.2027 121.715 28.116 121.308 28.116ZM121.204 24.138H118.981V27.245H121.295C121.85 27.245 122.253 27.115 122.504 26.855C122.764 26.5863 122.894 26.1877 122.894 25.659C122.894 25.1217 122.755 24.736 122.478 24.502C122.209 24.2593 121.785 24.138 121.204 24.138ZM125.16 25.75H126.135L127.76 31.405H128.189L129.827 25.75H130.802L128.098 35.136H127.123L127.968 32.25H127.006L125.16 25.75ZM135.081 32.25V23.254H136.953L140.398 31.366H140.671V23.254H141.659V32.25H139.826L136.329 24.138H136.082V32.25H135.081ZM148.286 27.713V31.041C148.312 31.3617 148.563 31.5523 149.04 31.613L149.001 32.38C148.316 32.38 147.8 32.2067 147.454 31.86C146.674 32.2067 145.894 32.38 145.114 32.38C144.516 32.38 144.061 32.211 143.749 31.873C143.437 31.535 143.281 31.0497 143.281 30.417C143.281 29.7843 143.441 29.3207 143.762 29.026C144.082 28.7227 144.585 28.5363 145.27 28.467L147.311 28.272V27.713C147.311 27.271 147.215 26.9547 147.025 26.764C146.834 26.5733 146.574 26.478 146.245 26.478C145.551 26.478 144.832 26.5213 144.087 26.608L143.684 26.647L143.645 25.906C144.598 25.7153 145.443 25.62 146.18 25.62C146.916 25.62 147.449 25.789 147.779 26.127C148.117 26.465 148.286 26.9937 148.286 27.713ZM144.282 30.365C144.282 31.1623 144.611 31.561 145.27 31.561C145.859 31.561 146.44 31.4613 147.012 31.262L147.311 31.158V29.013L145.387 29.195C144.997 29.2297 144.715 29.3423 144.542 29.533C144.368 29.7237 144.282 30.001 144.282 30.365ZM151.184 32.25H150.209V25.75H151.171V26.205C151.821 25.815 152.454 25.62 153.069 25.62C153.875 25.62 154.439 25.841 154.759 26.283C155.045 26.1097 155.414 25.958 155.864 25.828C156.324 25.6893 156.727 25.62 157.073 25.62C157.94 25.62 158.521 25.854 158.815 26.322C159.119 26.7813 159.27 27.6133 159.27 28.818V32.25H158.295V28.844C158.295 27.9427 158.209 27.3273 158.035 26.998C157.862 26.66 157.494 26.491 156.93 26.491C156.644 26.491 156.35 26.5343 156.046 26.621C155.743 26.699 155.509 26.777 155.344 26.855L155.097 26.972C155.21 27.258 155.266 27.8907 155.266 28.87V32.25H154.291V28.896C154.291 27.96 154.205 27.3273 154.031 26.998C153.867 26.66 153.498 26.491 152.926 26.491C152.649 26.491 152.363 26.5343 152.068 26.621C151.782 26.699 151.561 26.777 151.405 26.855L151.184 26.972V32.25ZM165.497 31.444L165.874 31.405L165.9 32.172C164.912 32.3107 164.067 32.38 163.365 32.38C162.429 32.38 161.766 32.1113 161.376 31.574C160.986 31.028 160.791 30.183 160.791 29.039C160.791 26.7597 161.696 25.62 163.508 25.62C164.383 25.62 165.037 25.867 165.471 26.361C165.904 26.8463 166.121 27.6133 166.121 28.662L166.069 29.403H161.779C161.779 30.1223 161.909 30.6553 162.169 31.002C162.429 31.3487 162.879 31.522 163.521 31.522C164.171 31.522 164.829 31.496 165.497 31.444ZM165.146 28.623C165.146 27.8257 165.016 27.2623 164.756 26.933C164.504 26.6037 164.088 26.439 163.508 26.439C162.936 26.439 162.502 26.6123 162.208 26.959C161.922 27.3057 161.774 27.8603 161.766 28.623H165.146ZM169.873 32.25L172.343 23.254H174.527L176.997 32.25H176.009L175.359 29.936H171.511L170.861 32.25H169.873ZM173.097 24.112L171.732 29.039H175.138L173.773 24.112H173.097ZM179.216 32.25H178.241V25.75H179.203V26.205C179.905 25.815 180.576 25.62 181.218 25.62C182.084 25.62 182.665 25.854 182.96 26.322C183.263 26.79 183.415 27.622 183.415 28.818V32.25H182.453V28.844C182.453 27.9427 182.362 27.3273 182.18 26.998C182.006 26.66 181.629 26.491 181.049 26.491C180.771 26.491 180.477 26.5343 180.165 26.621C179.861 26.699 179.627 26.777 179.463 26.855L179.216 26.972V32.25ZM190.215 22.916V32.25H189.253V31.808C188.586 32.1893 187.927 32.38 187.277 32.38C186.93 32.38 186.627 32.3367 186.367 32.25C186.107 32.1633 185.864 32.0073 185.639 31.782C185.171 31.314 184.937 30.4517 184.937 29.195C184.937 27.9297 185.145 27.0197 185.561 26.465C185.986 25.9017 186.683 25.62 187.654 25.62C188.157 25.62 188.69 25.6763 189.253 25.789V22.916H190.215ZM186.393 31.08C186.532 31.2447 186.679 31.3573 186.835 31.418C186.991 31.4787 187.19 31.509 187.433 31.509C187.684 31.509 187.962 31.47 188.265 31.392C188.577 31.3053 188.82 31.223 188.993 31.145L189.253 31.028V26.621C188.698 26.517 188.183 26.465 187.706 26.465C187.047 26.465 186.588 26.6773 186.328 27.102C186.068 27.518 185.938 28.168 185.938 29.052C185.938 30.0573 186.09 30.7333 186.393 31.08ZM195.129 32.25V23.254H200.602V24.138H196.13V27.245H199.822V28.116H196.13V31.366H200.602V32.25H195.129ZM203.121 32.25H202.146V25.75H203.108V26.205C203.758 25.815 204.391 25.62 205.006 25.62C205.812 25.62 206.375 25.841 206.696 26.283C206.982 26.1097 207.35 25.958 207.801 25.828C208.26 25.6893 208.663 25.62 209.01 25.62C209.877 25.62 210.457 25.854 210.752 26.322C211.055 26.7813 211.207 27.6133 211.207 28.818V32.25H210.232V28.844C210.232 27.9427 210.145 27.3273 209.972 26.998C209.799 26.66 209.43 26.491 208.867 26.491C208.581 26.491 208.286 26.5343 207.983 26.621C207.68 26.699 207.446 26.777 207.281 26.855L207.034 26.972C207.147 27.258 207.203 27.8907 207.203 28.87V32.25H206.228V28.896C206.228 27.96 206.141 27.3273 205.968 26.998C205.803 26.66 205.435 26.491 204.863 26.491C204.586 26.491 204.3 26.5343 204.005 26.621C203.719 26.699 203.498 26.777 203.342 26.855L203.121 26.972V32.25ZM217.602 27.713V31.041C217.628 31.3617 217.879 31.5523 218.356 31.613L218.317 32.38C217.632 32.38 217.117 32.2067 216.77 31.86C215.99 32.2067 215.21 32.38 214.43 32.38C213.832 32.38 213.377 32.211 213.065 31.873C212.753 31.535 212.597 31.0497 212.597 30.417C212.597 29.7843 212.757 29.3207 213.078 29.026C213.399 28.7227 213.901 28.5363 214.586 28.467L216.627 28.272V27.713C216.627 27.271 216.532 26.9547 216.341 26.764C216.15 26.5733 215.89 26.478 215.561 26.478C214.868 26.478 214.148 26.5213 213.403 26.608L213 26.647L212.961 25.906C213.914 25.7153 214.759 25.62 215.496 25.62C216.233 25.62 216.766 25.789 217.095 26.127C217.433 26.465 217.602 26.9937 217.602 27.713ZM213.598 30.365C213.598 31.1623 213.927 31.561 214.586 31.561C215.175 31.561 215.756 31.4613 216.328 31.262L216.627 31.158V29.013L214.703 29.195C214.313 29.2297 214.031 29.3423 213.858 29.533C213.685 29.7237 213.598 30.001 213.598 30.365ZM219.526 32.25V25.75H220.501V32.25H219.526ZM219.526 24.281V23.15H220.501V24.281H219.526ZM222.448 32.25V22.916H223.423V32.25H222.448Z" fill="#C0C0C0"/>
<path d="M34.875 30.5L37.875 33.5" stroke="#003952" stroke-width="1.5" stroke-linecap="round" stroke-linejoin="round"/>
<path d="M31.125 31.5C33.7484 31.5 35.875 29.3734 35.875 26.75C35.875 24.1266 33.7484 22 31.125 22C28.5016 22 26.375 24.1266 26.375 26.75C26.375 29.3734 28.5016 31.5 31.125 31.5Z" stroke="#003952" stroke-width="1.5" stroke-linecap="round" stroke-linejoin="round"/>
<g filter="url(#filter1_d_0_51)">
<rect x="413.625" y="10.75" width="240" height="34" rx="5" fill="white"/>
<rect x="414.125" y="11.25" width="239" height="33" rx="4.5" stroke="black" stroke-opacity="0.1"/>
</g>
<path d="M432.213 23.995C430.913 23.995 430.263 24.4847 430.263 25.464C430.263 26.01 430.41 26.387 430.705 26.595C431.008 26.7943 431.615 26.998 432.525 27.206C433.444 27.4053 434.094 27.6697 434.475 27.999C434.856 28.3197 435.047 28.8527 435.047 29.598C435.047 31.444 434.089 32.367 432.174 32.367C431.541 32.367 430.748 32.2933 429.795 32.146L429.327 32.081L429.431 31.249C430.61 31.405 431.507 31.483 432.122 31.483C433.405 31.483 434.046 30.8807 434.046 29.676C434.046 29.1907 433.903 28.844 433.617 28.636C433.34 28.4193 432.815 28.2373 432.044 28.09C431.03 27.8733 430.311 27.596 429.886 27.258C429.461 26.9113 429.249 26.335 429.249 25.529C429.249 23.917 430.215 23.111 432.148 23.111C432.781 23.111 433.539 23.176 434.423 23.306L434.865 23.371L434.774 24.216C433.569 24.0687 432.716 23.995 432.213 23.995ZM441.027 31.444L441.404 31.405L441.43 32.172C440.442 32.3107 439.597 32.38 438.895 32.38C437.959 32.38 437.296 32.1113 436.906 31.574C436.516 31.028 436.321 30.183 436.321 29.039C436.321 26.7597 437.227 25.62 439.038 25.62C439.913 25.62 440.568 25.867 441.001 26.361C441.434 26.8463 441.651 27.6133 441.651 28.662L441.599 29.403H437.309C437.309 30.1223 437.439 30.6553 437.699 31.002C437.959 31.3487 438.41 31.522 439.051 31.522C439.701 31.522 440.36 31.496 441.027 31.444ZM440.676 28.623C440.676 27.8257 440.546 27.2623 440.286 26.933C440.035 26.6037 439.619 26.439 439.038 26.439C438.466 26.439 438.033 26.6123 437.738 26.959C437.452 27.3057 437.305 27.8603 437.296 28.623H440.676ZM443.248 32.25V22.916H444.223V32.25H443.248ZM450.599 31.444L450.976 31.405L451.002 32.172C450.014 32.3107 449.169 32.38 448.467 32.38C447.531 32.38 446.868 32.1113 446.478 31.574C446.088 31.028 445.893 30.183 445.893 29.039C445.893 26.7597 446.799 25.62 448.61 25.62C449.485 25.62 450.14 25.867 450.573 26.361C451.006 26.8463 451.223 27.6133 451.223 28.662L451.171 29.403H446.881C446.881 30.1223 447.011 30.6553 447.271 31.002C447.531 31.3487 447.982 31.522 448.623 31.522C449.273 31.522 449.932 31.496 450.599 31.444ZM450.248 28.623C450.248 27.8257 450.118 27.2623 449.858 26.933C449.607 26.6037 449.191 26.439 448.61 26.439C448.038 26.439 447.605 26.6123 447.31 26.959C447.024 27.3057 446.877 27.8603 446.868 28.623H450.248ZM456.072 26.595H454.005V29.702C454.005 30.4473 454.057 30.937 454.161 31.171C454.273 31.405 454.533 31.522 454.941 31.522L456.098 31.444L456.163 32.25C455.582 32.3453 455.14 32.393 454.837 32.393C454.161 32.393 453.693 32.2283 453.433 31.899C453.173 31.5697 453.043 30.9413 453.043 30.014V26.595H452.12V25.75H453.043V23.761H454.005V25.75H456.072V26.595ZM459.693 25.62C459.979 25.62 460.465 25.672 461.149 25.776L461.461 25.815L461.422 26.608C460.729 26.53 460.218 26.491 459.888 26.491C459.152 26.491 458.649 26.6687 458.38 27.024C458.12 27.3707 457.99 28.0207 457.99 28.974C457.99 29.9187 458.112 30.5773 458.354 30.95C458.606 31.3227 459.121 31.509 459.901 31.509L461.435 31.392L461.474 32.198C460.668 32.3193 460.066 32.38 459.667 32.38C458.653 32.38 457.951 32.12 457.561 31.6C457.18 31.08 456.989 30.2047 456.989 28.974C456.989 27.7347 457.197 26.868 457.613 26.374C458.029 25.8713 458.723 25.62 459.693 25.62ZM466.291 26.595H464.224V29.702C464.224 30.4473 464.276 30.937 464.38 31.171C464.493 31.405 464.753 31.522 465.16 31.522L466.317 31.444L466.382 32.25C465.802 32.3453 465.36 32.393 465.056 32.393C464.38 32.393 463.912 32.2283 463.652 31.899C463.392 31.5697 463.262 30.9413 463.262 30.014V26.595H462.339V25.75H463.262V23.761H464.224V25.75H466.291V26.595Z" fill="#1F1F1F" fill-opacity="0.5"/>
<path d="M364.73 32.25V23.254H370.112V24.138H365.731V27.648H369.436V28.532H365.731V32.25H364.73ZM371.404 32.25V25.75H372.379V32.25H371.404ZM371.404 24.281V23.15H372.379V24.281H371.404ZM374.326 32.25V22.916H375.301V32.25H374.326ZM380.623 26.595H378.556V29.702C378.556 30.4473 378.608 30.937 378.712 31.171C378.825 31.405 379.085 31.522 379.492 31.522L380.649 31.444L380.714 32.25C380.134 32.3453 379.692 32.393 379.388 32.393C378.712 32.393 378.244 32.2283 377.984 31.899C377.724 31.5697 377.594 30.9413 377.594 30.014V26.595H376.671V25.75H377.594V23.761H378.556V25.75H380.623V26.595ZM386.234 31.444L386.611 31.405L386.637 32.172C385.649 32.3107 384.804 32.38 384.102 32.38C383.166 32.38 382.503 32.1113 382.113 31.574C381.723 31.028 381.528 30.183 381.528 29.039C381.528 26.7597 382.434 25.62 384.245 25.62C385.12 25.62 385.775 25.867 386.208 26.361C386.641 26.8463 386.858 27.6133 386.858 28.662L386.806 29.403H382.516C382.516 30.1223 382.646 30.6553 382.906 31.002C383.166 31.3487 383.617 31.522 384.258 31.522C384.908 31.522 385.567 31.496 386.234 31.444ZM385.883 28.623C385.883 27.8257 385.753 27.2623 385.493 26.933C385.242 26.6037 384.826 26.439 384.245 26.439C383.673 26.439 383.24 26.6123 382.945 26.959C382.659 27.3057 382.512 27.8603 382.503 28.623H385.883ZM388.377 32.25V25.75H389.339V26.634C390.093 26.114 390.886 25.7717 391.718 25.607V26.595C391.354 26.6643 390.973 26.7727 390.574 26.92C390.184 27.0673 389.885 27.1973 389.677 27.31L389.352 27.479V32.25H388.377ZM394.913 26.491C393.968 26.491 393.496 26.8203 393.496 27.479C393.496 27.7823 393.604 27.999 393.821 28.129C394.037 28.2503 394.531 28.3803 395.303 28.519C396.074 28.649 396.62 28.8353 396.941 29.078C397.261 29.3207 397.422 29.7757 397.422 30.443C397.422 31.1103 397.205 31.6 396.772 31.912C396.347 32.224 395.723 32.38 394.9 32.38C394.362 32.38 393.73 32.3193 393.002 32.198L392.612 32.133L392.664 31.288C393.652 31.4353 394.397 31.509 394.9 31.509C395.402 31.509 395.784 31.431 396.044 31.275C396.312 31.1103 396.447 30.8417 396.447 30.469C396.447 30.0877 396.334 29.832 396.109 29.702C395.883 29.5633 395.389 29.4333 394.627 29.312C393.864 29.1907 393.322 29.013 393.002 28.779C392.681 28.545 392.521 28.1117 392.521 27.479C392.521 26.8463 392.742 26.3783 393.184 26.075C393.634 25.7717 394.193 25.62 394.861 25.62C395.389 25.62 396.052 25.6807 396.85 25.802L397.214 25.867L397.188 26.699C396.226 26.5603 395.467 26.491 394.913 26.491Z" fill="#1F1F1F"/>
<path d="M634.905 26.0254L630.765 30.1654L626.625 26.0254L627.315 25.335L630.765 28.7855L634.215 25.335L634.905 26.0254Z" fill="#1E1C21"/>
<defs>
<filter id="filter0_d_0_51" x="0.625" y="0.75" width="330" height="64" filterUnits="userSpaceOnUse" color-interpolation-filters="sRGB">
<feFlood flood-opacity="0" result="BackgroundImageFix"/>
<feColorMatrix in="SourceAlpha" type="matrix" values="0 0 0 0 0 0 0 0 0 0 0 0 0 0 0 0 0 0 127 0" result="hardAlpha"/>
<feOffset dy="5"/>
<feGaussianBlur stdDeviation="7.5"/>
<feComposite in2="hardAlpha" operator="out"/>
<feColorMatrix type="matrix" values="0 0 0 0 0 0 0 0 0 0 0 0 0 0 0 0 0 0 0.05 0"/>
<feBlend mode="normal" in2="BackgroundImageFix" result="effect1_dropShadow_0_51"/>
<feBlend mode="normal" in="SourceGraphic" in2="effect1_dropShadow_0_51" result="shape"/>
</filter>
<filter id="filter1_d_0_51" x="398.625" y="0.75" width="270" height="64" filterUnits="userSpaceOnUse" color-interpolation-filters="sRGB">
<feFlood flood-opacity="0" result="BackgroundImageFix"/>
<feColorMatrix in="SourceAlpha" type="matrix" values="0 0 0 0 0 0 0 0 0 0 0 0 0 0 0 0 0 0 127 0" result="hardAlpha"/>
<feOffset dy="5"/>
<feGaussianBlur stdDeviation="7.5"/>
<feComposite in2="hardAlpha" operator="out"/>
<feColorMatrix type="matrix" values="0 0 0 0 0 0 0 0 0 0 0 0 0 0 0 0 0 0 0.05 0"/>
<feBlend mode="normal" in2="BackgroundImageFix" result="effect1_dropShadow_0_51"/>
<feBlend mode="normal" in="SourceGraphic" in2="effect1_dropShadow_0_51" result="shape"/>
</filter>
</defs>
</svg>
