<svg width="176" height="65" viewBox="0 0 176 65" fill="none" xmlns="http://www.w3.org/2000/svg">
<g filter="url(#filter0_d_0_63)">
<rect x="80.375" y="10.75" width="80" height="34" rx="5" fill="white"/>
<rect x="80.875" y="11.25" width="79" height="33" rx="4.5" stroke="black" stroke-opacity="0.1"/>
</g>
<path d="M100.64 23.67V32.25H99.197V25.308L97.182 26.608L96.519 25.529L99.314 23.67H100.64ZM103.845 24.58C104.391 23.878 105.206 23.527 106.289 23.527C107.373 23.527 108.183 23.8737 108.72 24.567C109.258 25.2603 109.526 26.4087 109.526 28.012C109.526 29.6067 109.253 30.7377 108.707 31.405C108.17 32.0637 107.36 32.393 106.276 32.393C105.202 32.393 104.391 32.0637 103.845 31.405C103.308 30.7463 103.039 29.6197 103.039 28.025C103.039 26.4217 103.308 25.2733 103.845 24.58ZM107.628 25.503C107.36 25.0263 106.913 24.788 106.289 24.788C105.665 24.788 105.215 25.0263 104.937 25.503C104.669 25.971 104.534 26.7987 104.534 27.986C104.534 29.1733 104.673 29.9967 104.95 30.456C105.236 30.9067 105.683 31.132 106.289 31.132C106.905 31.132 107.347 30.9067 107.615 30.456C107.893 29.9967 108.031 29.1733 108.031 27.986C108.031 26.7987 107.897 25.971 107.628 25.503Z" fill="#1F1F1F"/>
<path d="M3.963 23.995C2.663 23.995 2.013 24.4847 2.013 25.464C2.013 26.01 2.16033 26.387 2.455 26.595C2.75833 26.7943 3.365 26.998 4.275 27.206C5.19367 27.4053 5.84367 27.6697 6.225 27.999C6.60633 28.3197 6.797 28.8527 6.797 29.598C6.797 31.444 5.83933 32.367 3.924 32.367C3.29133 32.367 2.49833 32.2933 1.545 32.146L1.077 32.081L1.181 31.249C2.35967 31.405 3.25667 31.483 3.872 31.483C5.15467 31.483 5.796 30.8807 5.796 29.676C5.796 29.1907 5.653 28.844 5.367 28.636C5.08967 28.4193 4.56533 28.2373 3.794 28.09C2.78 27.8733 2.06067 27.596 1.636 27.258C1.21133 26.9113 0.999 26.335 0.999 25.529C0.999 23.917 1.96533 23.111 3.898 23.111C4.53067 23.111 5.289 23.176 6.173 23.306L6.615 23.371L6.524 24.216C5.31933 24.0687 4.46567 23.995 3.963 23.995ZM9.3319 32.25H8.3569V22.916H9.3319V26.114C10.0252 25.7847 10.6926 25.62 11.3339 25.62C12.2006 25.62 12.7812 25.854 13.0759 26.322C13.3792 26.79 13.5309 27.622 13.5309 28.818V32.25H12.5559V28.844C12.5559 27.9427 12.4649 27.3273 12.2829 26.998C12.1096 26.66 11.7369 26.491 11.1649 26.491C10.6189 26.491 10.0902 26.5907 9.5789 26.79L9.3319 26.881V32.25ZM15.0533 28.987C15.0533 27.7997 15.2657 26.9417 15.6903 26.413C16.115 25.8843 16.83 25.62 17.8353 25.62C18.8493 25.62 19.5643 25.8843 19.9803 26.413C20.405 26.9417 20.6173 27.7997 20.6173 28.987C20.6173 30.1743 20.418 31.0367 20.0193 31.574C19.6207 32.1113 18.8927 32.38 17.8353 32.38C16.778 32.38 16.05 32.1113 15.6513 31.574C15.2527 31.0367 15.0533 30.1743 15.0533 28.987ZM16.0543 28.974C16.0543 29.9187 16.167 30.5817 16.3923 30.963C16.6263 31.3443 17.1073 31.535 17.8353 31.535C18.572 31.535 19.053 31.3487 19.2783 30.976C19.5037 30.5947 19.6163 29.9273 19.6163 28.974C19.6163 28.0207 19.4907 27.3663 19.2393 27.011C18.988 26.647 18.52 26.465 17.8353 26.465C17.1593 26.465 16.6913 26.647 16.4313 27.011C16.18 27.3663 16.0543 28.0207 16.0543 28.974ZM21.611 25.75H22.586L23.899 31.405H24.107L25.654 25.88H26.668L28.215 31.405H28.436L29.736 25.75H30.711L29.164 32.25H27.539L26.161 27.167L24.783 32.25H23.158L21.611 25.75ZM36.0728 28.805V32.25H35.0718V23.254H38.3998C39.3531 23.254 40.0681 23.475 40.5448 23.917C41.0301 24.359 41.2728 25.048 41.2728 25.984C41.2728 27.3707 40.7225 28.2417 39.6218 28.597L41.3508 32.25H40.2458L38.6208 28.805H36.0728ZM38.4128 27.921C39.6348 27.921 40.2458 27.2927 40.2458 26.036C40.2458 24.7707 39.6305 24.138 38.3998 24.138H36.0728V27.921H38.4128ZM42.5133 28.987C42.5133 27.7997 42.7256 26.9417 43.1503 26.413C43.5749 25.8843 44.2899 25.62 45.2953 25.62C46.3093 25.62 47.0243 25.8843 47.4403 26.413C47.8649 26.9417 48.0773 27.7997 48.0773 28.987C48.0773 30.1743 47.8779 31.0367 47.4793 31.574C47.0806 32.1113 46.3526 32.38 45.2953 32.38C44.2379 32.38 43.5099 32.1113 43.1113 31.574C42.7126 31.0367 42.5133 30.1743 42.5133 28.987ZM43.5143 28.974C43.5143 29.9187 43.6269 30.5817 43.8523 30.963C44.0863 31.3443 44.5673 31.535 45.2953 31.535C46.0319 31.535 46.5129 31.3487 46.7383 30.976C46.9636 30.5947 47.0763 29.9273 47.0763 28.974C47.0763 28.0207 46.9506 27.3663 46.6993 27.011C46.4479 26.647 45.9799 26.465 45.2953 26.465C44.6193 26.465 44.1513 26.647 43.8913 27.011C43.6399 27.3663 43.5143 28.0207 43.5143 28.974ZM49.071 25.75H50.046L51.359 31.405H51.567L53.114 25.88H54.128L55.675 31.405H55.896L57.196 25.75H58.171L56.624 32.25H54.999L53.621 27.167L52.243 32.25H50.618L49.071 25.75ZM61.4965 26.491C60.5519 26.491 60.0795 26.8203 60.0795 27.479C60.0795 27.7823 60.1879 27.999 60.4045 28.129C60.6212 28.2503 61.1152 28.3803 61.8865 28.519C62.6579 28.649 63.2039 28.8353 63.5245 29.078C63.8452 29.3207 64.0055 29.7757 64.0055 30.443C64.0055 31.1103 63.7889 31.6 63.3555 31.912C62.9309 32.224 62.3069 32.38 61.4835 32.38C60.9462 32.38 60.3135 32.3193 59.5855 32.198L59.1955 32.133L59.2475 31.288C60.2355 31.4353 60.9809 31.509 61.4835 31.509C61.9862 31.509 62.3675 31.431 62.6275 31.275C62.8962 31.1103 63.0305 30.8417 63.0305 30.469C63.0305 30.0877 62.9179 29.832 62.6925 29.702C62.4672 29.5633 61.9732 29.4333 61.2105 29.312C60.4479 29.1907 59.9062 29.013 59.5855 28.779C59.2649 28.545 59.1045 28.1117 59.1045 27.479C59.1045 26.8463 59.3255 26.3783 59.7675 26.075C60.2182 25.7717 60.7772 25.62 61.4445 25.62C61.9732 25.62 62.6362 25.6807 63.4335 25.802L63.7975 25.867L63.7715 26.699C62.8095 26.5603 62.0512 26.491 61.4965 26.491Z" fill="#1F1F1F"/>
<path d="M144.655 30.7552L140.515 34.8952L136.375 30.7552L137.065 30.0648L140.515 33.5154L143.965 30.0648L144.655 30.7552Z" fill="#1E1C21"/>
<path d="M144.655 27.3744L140.515 23.2344L136.375 27.3744L137.065 28.0648L140.515 24.6142L143.965 28.0648L144.655 27.3744Z" fill="#1E1C21"/>
<defs>
<filter id="filter0_d_0_63" x="65.375" y="0.75" width="110" height="64" filterUnits="userSpaceOnUse" color-interpolation-filters="sRGB">
<feFlood flood-opacity="0" result="BackgroundImageFix"/>
<feColorMatrix in="SourceAlpha" type="matrix" values="0 0 0 0 0 0 0 0 0 0 0 0 0 0 0 0 0 0 127 0" result="hardAlpha"/>
<feOffset dy="5"/>
<feGaussianBlur stdDeviation="7.5"/>
<feComposite in2="hardAlpha" operator="out"/>
<feColorMatrix type="matrix" values="0 0 0 0 0 0 0 0 0 0 0 0 0 0 0 0 0 0 0.05 0"/>
<feBlend mode="normal" in2="BackgroundImageFix" result="effect1_dropShadow_0_63"/>
<feBlend mode="normal" in="SourceGraphic" in2="effect1_dropShadow_0_63" result="shape"/>
</filter>
</defs>
</svg>
