<svg width="66" height="22" viewBox="0 0 66 22" fill="none" xmlns="http://www.w3.org/2000/svg">
<path d="M38.312 15.4665L40.782 6.47052H42.966L45.436 15.4665H44.448L43.798 13.1525H39.95L39.3 15.4665H38.312ZM41.536 7.32852L40.171 12.2555H43.577L42.212 7.32852H41.536ZM46.6801 18.3525V8.96652H47.6421V9.43452C48.3008 9.03586 48.9508 8.83652 49.5921 8.83652C50.4155 8.83652 51.0135 9.10085 51.3861 9.62952C51.7588 10.1495 51.9451 11.0119 51.9451 12.2165C51.9451 13.4212 51.7241 14.2879 51.2821 14.8165C50.8488 15.3365 50.1251 15.5965 49.1111 15.5965C48.5825 15.5965 48.0971 15.5489 47.6551 15.4535V18.3525H46.6801ZM49.4491 9.70752C49.1891 9.70752 48.9075 9.75086 48.6041 9.83752C48.3095 9.92419 48.0755 10.0109 47.9021 10.0975L47.6551 10.2275V14.6085C48.2705 14.7039 48.7385 14.7515 49.0591 14.7515C49.7611 14.7515 50.2508 14.5522 50.5281 14.1535C50.8141 13.7549 50.9571 13.1049 50.9571 12.2035C50.9571 11.3022 50.8271 10.6609 50.5671 10.2795C50.3158 9.89819 49.9431 9.70752 49.4491 9.70752ZM53.5356 18.3525V8.96652H54.4976V9.43452C55.1563 9.03586 55.8063 8.83652 56.4476 8.83652C57.2709 8.83652 57.8689 9.10085 58.2416 9.62952C58.6143 10.1495 58.8006 11.0119 58.8006 12.2165C58.8006 13.4212 58.5796 14.2879 58.1376 14.8165C57.7043 15.3365 56.9806 15.5965 55.9666 15.5965C55.4379 15.5965 54.9526 15.5489 54.5106 15.4535V18.3525H53.5356ZM56.3046 9.70752C56.0446 9.70752 55.7629 9.75086 55.4596 9.83752C55.1649 9.92419 54.9309 10.0109 54.7576 10.0975L54.5106 10.2275V14.6085C55.1259 14.7039 55.5939 14.7515 55.9146 14.7515C56.6166 14.7515 57.1063 14.5522 57.3836 14.1535C57.6696 13.7549 57.8126 13.1049 57.8126 12.2035C57.8126 11.3022 57.6826 10.6609 57.4226 10.2795C57.1713 9.89819 56.7986 9.70752 56.3046 9.70752ZM62.4321 9.70752C61.4874 9.70752 61.0151 10.0369 61.0151 10.6955C61.0151 10.9989 61.1234 11.2155 61.3401 11.3455C61.5567 11.4669 62.0507 11.5969 62.8221 11.7355C63.5934 11.8655 64.1394 12.0519 64.4601 12.2945C64.7807 12.5372 64.9411 12.9922 64.9411 13.6595C64.9411 14.3269 64.7244 14.8165 64.2911 15.1285C63.8664 15.4405 63.2424 15.5965 62.4191 15.5965C61.8817 15.5965 61.2491 15.5359 60.5211 15.4145L60.1311 15.3495L60.1831 14.5045C61.1711 14.6519 61.9164 14.7255 62.4191 14.7255C62.9217 14.7255 63.3031 14.6475 63.5631 14.4915C63.8317 14.3269 63.9661 14.0582 63.9661 13.6855C63.9661 13.3042 63.8534 13.0485 63.6281 12.9185C63.4027 12.7799 62.9087 12.6499 62.1461 12.5285C61.3834 12.4072 60.8417 12.2295 60.5211 11.9955C60.2004 11.7615 60.0401 11.3282 60.0401 10.6955C60.0401 10.0629 60.2611 9.59486 60.7031 9.29152C61.1537 8.98819 61.7127 8.83652 62.3801 8.83652C62.9087 8.83652 63.5717 8.89719 64.3691 9.01852L64.7331 9.08352L64.7071 9.91552C63.7451 9.77686 62.9867 9.70752 62.4321 9.70752Z" fill="#1F1F1F"/>
<path d="M17.6661 1.23494C17.1735 0.742897 16.5057 0.466522 15.8094 0.466522C15.1131 0.466522 14.4453 0.742897 13.9526 1.23494L10.924 4.25654C10.7945 3.67291 10.4698 3.1509 10.0036 2.77671C9.53734 2.40251 8.95744 2.19849 8.35961 2.19835H3.10465C2.4078 2.19835 1.73949 2.47517 1.24674 2.96792C0.753996 3.46066 0.477173 4.12897 0.477173 4.82582V18.8355C0.477173 19.7289 0.923844 20.5206 1.60524 20.9936C2.03089 21.2914 2.55113 21.4665 3.10991 21.4665H17.1231C17.82 21.4665 18.4883 21.1897 18.981 20.697C19.4738 20.2042 19.7506 19.5359 19.7506 18.839V13.5841C19.7505 13.0017 19.5568 12.4359 19.2001 11.9755C18.8434 11.5151 18.3439 11.1863 17.78 11.0407L20.7666 8.04886C21.2591 7.55614 21.5359 6.88795 21.5359 6.19124C21.5359 5.49452 21.2591 4.82633 20.7666 4.33361L17.6661 1.23319V1.23494ZM13.7564 10.9566H10.9888V8.189L13.7547 10.9566H13.7564ZM15.1893 2.4716C15.3535 2.30741 15.5763 2.21517 15.8085 2.21517C16.0407 2.21517 16.2635 2.30741 16.4277 2.4716L19.5299 5.57203C19.6115 5.65339 19.6762 5.75003 19.7203 5.85644C19.7645 5.96284 19.7872 6.07691 19.7872 6.19211C19.7872 6.30732 19.7645 6.42138 19.7203 6.52779C19.6762 6.63419 19.6115 6.73084 19.5299 6.8122L16.4295 9.91262C16.3481 9.99419 16.2515 10.0589 16.1451 10.103C16.0387 10.1472 15.9246 10.1699 15.8094 10.1699C15.6942 10.1699 15.5801 10.1472 15.4737 10.103C15.3673 10.0589 15.2707 9.99419 15.1893 9.91262L12.0889 6.8122C11.9247 6.64796 11.8324 6.42523 11.8324 6.19299C11.8324 5.96075 11.9247 5.73802 12.0889 5.57378L15.1893 2.47336V2.4716ZM9.23543 4.82582V10.9566H2.22883V4.82582C2.22883 4.59354 2.3211 4.37077 2.48535 4.20652C2.6496 4.04227 2.87237 3.95 3.10465 3.95H8.35961C8.59189 3.95 8.81466 4.04227 8.97891 4.20652C9.14316 4.37077 9.23543 4.59354 9.23543 4.82582ZM2.23408 18.839V12.7083H9.23543V19.7114H3.10465C2.99018 19.7114 2.87683 19.6888 2.77109 19.6449C2.66536 19.6011 2.56931 19.5368 2.48844 19.4558C2.40758 19.3747 2.34349 19.2786 2.29985 19.1727C2.2562 19.0669 2.23385 18.9535 2.23408 18.839ZM10.9871 12.7083H17.1231C17.3554 12.7083 17.5782 12.8005 17.7424 12.9648C17.9067 13.129 17.999 13.3518 17.999 13.5841V18.839C17.999 19.0713 17.9067 19.2941 17.7424 19.4583C17.5782 19.6226 17.3554 19.7149 17.1231 19.7149H10.9871V12.7083Z" fill="#003952" stroke="white" stroke-width="0.2"/>
</svg>
