<svg width="108" height="34" viewBox="0 0 108 34" fill="none" xmlns="http://www.w3.org/2000/svg">
<path d="M53.8763 15.3621C53.8763 18.3183 53.8763 21.2814 53.8763 24.2514C51.9857 24.2514 50.1363 24.2514 48.2594 24.2514C48.2594 16.2627 48.2594 8.28092 48.2594 0.278509C48.3557 0.271634 48.4519 0.264759 48.5413 0.264759C51.2844 0.264759 54.0275 0.257884 56.7706 0.264759C58.4206 0.264759 60.0499 0.409132 61.6105 0.952251C63.9961 1.78412 65.3092 3.4066 65.6874 5.68907C65.9142 7.05718 65.8867 8.42529 65.4674 9.7659C64.7799 11.9934 63.1505 13.3202 60.7374 13.8977C60.5862 13.9321 60.4418 14.0009 60.2974 14.0559C60.4212 14.1452 60.5381 14.2484 60.6687 14.3171C61.5143 14.764 62.188 15.3758 62.7105 16.1115C63.2193 16.8333 63.7005 17.5758 64.1611 18.3321C65.3092 20.2089 66.4436 22.0995 67.578 23.9832C67.6261 24.0657 67.6742 24.1551 67.7361 24.2651C67.6123 24.2651 67.5298 24.2651 67.4473 24.2651C65.378 24.2651 63.3018 24.2582 61.2324 24.272C61.0124 24.272 60.9162 24.2032 60.8199 24.0314C59.4724 21.5839 58.1112 19.1433 56.7568 16.7027C56.1587 15.589 55.2787 15.1765 53.8763 15.3621ZM53.8969 11.1753C54.44 11.1753 54.9694 11.189 55.4919 11.1684C56.1587 11.1478 56.8325 11.1409 57.4925 11.0446C58.6681 10.8728 59.5137 10.2953 59.8506 9.20216C60.0774 8.46654 60.1187 7.7103 59.9743 6.95406C59.7681 5.86095 59.0806 5.11845 57.9118 4.79533C57.6231 4.71283 57.3275 4.63033 57.0318 4.62346C55.9937 4.60284 54.9556 4.61658 53.9038 4.61658C53.8969 6.78219 53.8969 8.95466 53.8969 11.1753Z" fill="#003952"/>
<path d="M28.2946 18.7721C27.7378 20.5939 27.1809 22.4158 26.6172 24.2514C24.7059 24.2514 22.8016 24.2514 20.8697 24.2514C21.0897 23.5776 21.3097 22.9039 21.5297 22.237C23.9153 15.0115 26.3009 7.78594 28.6796 0.553518C28.7553 0.319771 28.8584 0.257896 29.1196 0.257896C31.5534 0.264771 33.9871 0.264771 36.4139 0.264771C36.5102 0.264771 36.6064 0.264771 36.7371 0.264771C39.3839 8.25343 42.0307 16.2352 44.6845 24.2514C44.5813 24.2583 44.4988 24.2651 44.4163 24.2651C42.6082 24.2651 40.8001 24.2651 38.9851 24.272C38.772 24.272 38.6895 24.217 38.6277 24.0245C38.1258 22.347 37.6033 20.6695 37.0945 18.9852C37.0533 18.8477 37.0258 18.7514 36.8195 18.7514C34.0146 18.7583 31.2165 18.7583 28.4115 18.7583C28.3909 18.7583 28.3496 18.7652 28.2946 18.7721ZM35.7539 14.434C34.7364 10.9003 33.554 7.44219 32.7015 3.88786C31.8421 7.44907 30.6802 10.9209 29.6146 14.434C31.6702 14.434 33.6983 14.434 35.7539 14.434Z" fill="#003952"/>
<path d="M76.7904 19.9614C76.7904 18.0364 76.7904 16.1114 76.7904 14.1865C79.6091 14.1865 82.4278 14.1865 85.2466 14.1865C85.2466 12.7427 85.2466 11.3677 85.2466 9.924C82.4278 9.924 79.6091 9.924 76.7904 9.924C76.7904 8.13652 76.7904 6.34904 76.7904 4.56156C80.0904 4.56156 83.3216 4.56156 86.6215 4.56156C86.6215 3.94282 86.6215 3.76407 86.6215 3.15908C86.1403 2.44409 84.7378 0.36786 84.6622 0.29911C80.0422 0.29911 75.7592 0.29911 71.153 0.29911C71.153 8.27402 71.153 16.2489 71.153 24.2238C75.0717 24.2238 76.9829 24.2238 80.9222 24.2238C82.1253 22.7801 83.3491 21.3364 84.5178 19.9614C81.2591 19.9614 80.0904 19.9614 76.7904 19.9614Z" fill="#003952"/>
<path d="M107.356 23.9489C104.696 20.0439 102.028 16.139 99.3608 12.2409C99.2439 12.0759 99.2439 11.959 99.3539 11.794C101.884 8.05407 104.407 4.32786 106.923 0.587905C106.985 0.498531 107.04 0.374782 107.116 0.306033C106.985 0.306033 106.903 0.306033 106.813 0.306033C104.819 0.306033 102.826 0.292283 100.832 0.285408C100.612 0.285408 100.509 0.347282 100.413 0.519155C99.1133 2.81538 97.8071 5.1116 96.5008 7.40783C96.4527 7.4972 96.3633 7.56595 96.2946 7.64157C96.2258 7.56595 96.1364 7.49033 96.0815 7.40783C94.7065 5.11848 93.3315 2.82225 91.9634 0.52603C91.8602 0.347282 91.7502 0.292283 91.5165 0.292283C89.4334 0.299158 87.3503 0.312908 85.2672 0.312908C85.1778 0.312908 85.0885 0.312908 84.9578 0.312908C85.0335 0.381657 85.0953 0.505406 85.1503 0.594779C85.6384 1.30977 86.1334 2.02476 86.6147 2.73976C88.6084 5.7441 90.6778 8.74844 92.7196 11.7459C92.864 11.959 92.8502 12.1103 92.7059 12.3165C91.6815 13.8084 89.289 16.744 86.5734 19.9752C85.4047 21.3502 84.181 22.7939 82.9778 24.2376C79.6779 28.2251 76.5567 31.9444 75.3536 33.7044C75.2986 33.7869 75.2504 33.8625 75.1748 34C75.3054 34 75.4017 34 75.4979 34C77.4848 34 79.4648 33.9931 81.4516 34C81.6647 34 81.8779 33.7663 81.8779 33.7663L95.5452 16.7577C95.5452 16.7577 95.6965 16.5927 95.779 16.5102C95.8546 16.5927 95.9508 16.6683 96.0127 16.7646C97.5527 19.1983 99.0858 21.632 100.612 24.0726C100.708 24.2239 100.805 24.2926 100.997 24.2926C103.087 24.2858 105.184 24.2995 107.274 24.2995C107.356 24.2995 107.439 24.2995 107.569 24.2995C107.48 24.1551 107.418 24.0451 107.356 23.9489Z" fill="#66B25D"/>
<path d="M19.7491 2.80159C18.4979 4.06658 17.2673 5.31781 16.0229 6.58967C15.8992 6.45905 15.7823 6.34218 15.6723 6.21843C14.4623 4.92594 12.9017 4.37595 11.0661 4.41032C8.83176 4.45157 7.35365 5.45531 6.56991 7.48342C6.12991 8.6109 5.95804 9.77964 5.89617 10.969C5.80679 12.7084 5.86867 14.4408 6.39116 16.1321C6.63178 16.9089 6.97553 17.6446 7.5049 18.2908C8.71488 19.7689 10.3855 20.2364 12.3242 20.0714C13.878 19.9408 15.1567 19.2945 16.1879 18.2358C16.2292 18.1945 16.2498 18.1464 16.3048 18.0708C17.3842 19.3358 18.4154 20.5526 19.4604 21.7833C18.766 22.5257 17.9273 23.0551 16.9923 23.4745C15.5486 24.1207 14.0155 24.4301 12.4205 24.5401C10.7705 24.6501 9.13425 24.5676 7.5324 24.1757C4.40431 23.4126 2.32121 21.5976 1.13872 18.8683C0.348103 17.0671 0.066231 15.1765 0.0112316 13.2515C-0.0575176 10.9209 0.17623 8.62465 1.08372 6.42468C2.08746 3.97033 3.77869 2.0591 6.43241 0.945363C8.37114 0.134122 10.4199 -0.0790008 12.5236 0.024123C14.1529 0.106622 15.7204 0.415994 17.1917 1.06911C18.1542 1.49536 19.0135 2.05223 19.7491 2.80159Z" fill="#003952"/>
<path d="M53.7968 33.6975C53.7831 33.6975 53.7693 33.6975 53.7556 33.6975C53.3706 33.6975 52.9787 33.6975 52.5937 33.6975C52.5662 33.6975 52.5456 33.6975 52.5319 33.6632C52.1262 32.8725 51.7137 32.0888 51.315 31.2913C51.1363 30.9338 50.9988 30.5488 50.8406 30.1776C50.8338 30.1569 50.82 30.1363 50.7994 30.1157C50.8544 30.7069 50.8613 31.3051 50.8613 31.8963C50.8613 32.4944 50.8613 33.0925 50.8613 33.6907C50.5175 33.6907 50.1806 33.6907 49.8438 33.6907C49.8438 32.0544 49.8438 30.4182 49.8438 28.782C49.8575 28.782 49.8713 28.782 49.8919 28.782C50.2906 28.782 50.6825 28.782 51.0813 28.782C51.1088 28.782 51.1294 28.7888 51.1431 28.8163C51.5556 29.6207 51.975 30.4251 52.3875 31.2363C52.5387 31.5388 52.6625 31.8619 52.8 32.1713C52.8069 32.1919 52.8137 32.2057 52.8275 32.24C52.8137 31.6488 52.7931 31.0782 52.7931 30.5076C52.7862 29.9301 52.7931 29.3595 52.7931 28.782C53.13 28.782 53.4669 28.782 53.8037 28.782C53.7968 30.4251 53.7968 32.0544 53.7968 33.6975Z" fill="#003952"/>
<path d="M59.1084 33.6975C59.0946 33.6975 59.0809 33.6975 59.0671 33.6975C58.6821 33.6975 58.2902 33.6975 57.9052 33.6975C57.8777 33.6975 57.8571 33.6975 57.8434 33.6632C57.4377 32.8725 57.0253 32.0888 56.6265 31.2913C56.4478 30.9338 56.3103 30.5488 56.1521 30.1776C56.1453 30.1569 56.1315 30.1363 56.1109 30.1157C56.214 31.3051 56.1521 32.4944 56.1728 33.6907C55.829 33.6907 55.4921 33.6907 55.1484 33.6907C55.1484 32.0544 55.1484 30.4182 55.1484 28.782C55.1621 28.782 55.1759 28.782 55.1965 28.782C55.5953 28.782 55.9871 28.782 56.3859 28.782C56.4134 28.782 56.434 28.7888 56.4478 28.8163C56.8603 29.6207 57.2796 30.4251 57.6921 31.2363C57.8434 31.5388 57.9671 31.8619 58.1046 32.1713C58.1115 32.1919 58.1184 32.2057 58.1321 32.24C58.1184 31.6488 58.0977 31.0782 58.0977 30.5076C58.0909 29.9301 58.0977 29.3595 58.0977 28.782C58.4346 28.782 58.7715 28.782 59.1084 28.782C59.1084 30.4251 59.1084 32.0544 59.1084 33.6975Z" fill="#003952"/>
<path d="M48.4855 31.2019C48.4992 31.6282 48.458 32.0544 48.3136 32.46C48.1555 32.9138 47.8874 33.285 47.4611 33.5188C47.193 33.67 46.8974 33.7388 46.588 33.7594C46.2511 33.78 45.9143 33.7525 45.5911 33.6288C45.158 33.4706 44.8624 33.1613 44.6836 32.7419C44.5599 32.4531 44.4911 32.1438 44.4636 31.8344C44.4293 31.5113 44.4224 31.1813 44.4568 30.8582C44.4911 30.425 44.5874 29.9988 44.8143 29.6207C45.0824 29.1669 45.4743 28.8851 45.9899 28.7751C46.3886 28.6926 46.7874 28.6994 47.1792 28.8094C47.688 28.9469 48.0455 29.2701 48.2586 29.7513C48.4098 30.095 48.4786 30.4594 48.4992 30.8375C48.4923 30.9544 48.4855 31.0782 48.4855 31.2019ZM47.3924 31.2775C47.3924 30.9407 47.3717 30.6107 47.2686 30.2875C47.1517 29.9232 46.9317 29.6276 46.4505 29.6138C46.1617 29.6069 45.9211 29.71 45.7699 29.9644C45.6874 30.095 45.6393 30.2394 45.6049 30.3907C45.5224 30.7482 45.5155 31.1125 45.5361 31.4769C45.5499 31.745 45.5774 32.0131 45.6736 32.2744C45.8043 32.6388 46.0449 32.8656 46.4574 32.8794C46.7805 32.8863 47.0349 32.7625 47.1861 32.4669C47.2274 32.3913 47.2549 32.3088 47.2824 32.2263C47.3717 31.91 47.3855 31.5938 47.3924 31.2775Z" fill="#003952"/>
<path d="M61.5186 32.8175C62.1579 32.8175 62.7973 32.8175 63.4367 32.8175C63.4367 33.1132 63.4367 33.4019 63.4367 33.6975C62.4398 33.6975 61.4498 33.6975 60.4529 33.6975C60.4529 32.0613 60.4529 30.4251 60.4529 28.7888C61.4223 28.7888 62.3848 28.7888 63.3542 28.7888C63.3542 29.0845 63.3542 29.3732 63.3542 29.6688C62.7423 29.6688 62.1304 29.6688 61.5186 29.6688C61.5186 30.0332 61.5186 30.3907 61.5186 30.7619C62.041 30.7619 62.5704 30.7619 63.0929 30.7619C63.0929 31.0576 63.0929 31.3463 63.0929 31.6419C62.5704 31.6419 62.041 31.6419 61.5186 31.6419C61.5186 32.0338 61.5186 32.4188 61.5186 32.8175Z" fill="#003952"/>
<path d="M42.4639 32.4394C42.6633 32.6937 42.8558 32.9412 43.0483 33.1956C42.9451 33.3194 42.8214 33.4156 42.677 33.4912C42.3883 33.6562 42.072 33.7319 41.742 33.7594C41.4395 33.7869 41.1439 33.7731 40.8483 33.6975C40.1952 33.5394 39.7758 33.12 39.5627 32.4875C39.4114 32.0475 39.377 31.5938 39.3977 31.14C39.4114 30.7275 39.4733 30.3288 39.6383 29.9438C39.927 29.2769 40.4289 28.8713 41.1508 28.7613C41.6183 28.6925 42.0789 28.7269 42.5189 28.9057C42.7251 28.9882 42.9039 29.105 43.0551 29.2632C43.0689 29.2769 43.0826 29.2907 43.0895 29.3044C42.8558 29.5657 42.6289 29.82 42.3883 30.0813C42.3608 30.0538 42.3401 30.0263 42.3195 30.0057C42.0926 29.7444 41.8039 29.6344 41.4602 29.6413C41.0408 29.6482 40.7658 29.8544 40.6145 30.2669C40.532 30.5006 40.4977 30.7344 40.4908 30.9819C40.4702 31.3394 40.4839 31.6969 40.587 32.0475C40.6283 32.2056 40.697 32.35 40.7933 32.4875C41.0202 32.79 41.3364 32.8862 41.6939 32.8519C41.9826 32.8244 42.2233 32.6937 42.4226 32.4738C42.4433 32.46 42.4501 32.4531 42.4639 32.4394Z" fill="#003952"/>
<path d="M68.4341 33.1888C68.276 33.3675 68.0903 33.4913 67.8772 33.5806C67.4991 33.7388 67.0935 33.7869 66.6879 33.7594C66.4129 33.7456 66.1447 33.6906 65.8904 33.5738C65.4504 33.3744 65.1685 33.0375 64.9966 32.5975C64.8522 32.2263 64.7972 31.8344 64.7835 31.4425C64.7697 30.9613 64.8179 30.4938 64.9829 30.0469C65.1547 29.5863 65.4366 29.2151 65.8835 28.9744C66.131 28.8369 66.406 28.7682 66.6879 28.7407C67.0247 28.7063 67.3616 28.7338 67.6916 28.8232C67.9803 28.9057 68.2347 29.0432 68.4478 29.2563C68.4616 29.2701 68.4753 29.2838 68.4891 29.3044C68.2553 29.5657 68.0285 29.82 67.7878 30.0813C67.7672 30.0538 67.7466 30.0332 67.726 30.0057C67.4991 29.7376 67.2035 29.6276 66.8597 29.6344C66.4404 29.6413 66.1585 29.8476 66.0141 30.26C65.9316 30.4938 65.8972 30.7275 65.8904 30.975C65.8697 31.3325 65.8835 31.69 65.9866 32.0406C66.0279 32.1988 66.0966 32.3431 66.1929 32.4806C66.4197 32.7831 66.7291 32.8794 67.0935 32.845C67.3891 32.8175 67.6297 32.6869 67.8222 32.4669C67.8291 32.46 67.836 32.4531 67.8497 32.4394C68.0422 32.6869 68.2416 32.9413 68.4341 33.1888Z" fill="#003952"/>
<path d="M71.0505 33.6975C71.0505 32.3569 71.0505 31.0163 71.0505 29.6688C70.6449 29.6688 70.2393 29.6688 69.8337 29.6688C69.8337 29.3732 69.8337 29.0845 69.8337 28.7888C71.0024 28.7888 72.1643 28.7888 73.3399 28.7888C73.3399 29.0776 73.3399 29.3663 73.3399 29.6688C72.9343 29.6688 72.5355 29.6688 72.123 29.6688C72.123 31.0163 72.123 32.3569 72.123 33.6975C71.7655 33.6975 71.408 33.6975 71.0505 33.6975Z" fill="#003952"/>
</svg>
