<svg width="151" height="28" viewBox="0 0 151 28" fill="none" xmlns="http://www.w3.org/2000/svg">
<path d="M37.312 18.3248L39.782 9.32877H41.966L44.436 18.3248H43.448L42.798 16.0108H38.95L38.3 18.3248H37.312ZM40.536 10.1868L39.171 15.1138H42.577L41.212 10.1868H40.536ZM48.035 11.6948C48.321 11.6948 48.8063 11.7468 49.491 11.8508L49.803 11.8898L49.764 12.6828C49.0706 12.6048 48.5593 12.5658 48.23 12.5658C47.4933 12.5658 46.9906 12.7434 46.722 13.0988C46.462 13.4454 46.332 14.0954 46.332 15.0488C46.332 15.9934 46.4533 16.6521 46.696 17.0248C46.9473 17.3974 47.463 17.5838 48.243 17.5838L49.777 17.4668L49.816 18.2728C49.01 18.3941 48.4076 18.4548 48.009 18.4548C46.995 18.4548 46.293 18.1948 45.903 17.6748C45.5216 17.1548 45.331 16.2794 45.331 15.0488C45.331 13.8094 45.539 12.9428 45.955 12.4488C46.371 11.9461 47.0643 11.6948 48.035 11.6948ZM53.6209 11.6948C53.9069 11.6948 54.3922 11.7468 55.0769 11.8508L55.3889 11.8898L55.3499 12.6828C54.6566 12.6048 54.1452 12.5658 53.8159 12.5658C53.0792 12.5658 52.5766 12.7434 52.3079 13.0988C52.0479 13.4454 51.9179 14.0954 51.9179 15.0488C51.9179 15.9934 52.0392 16.6521 52.2819 17.0248C52.5332 17.3974 53.0489 17.5838 53.8289 17.5838L55.3629 17.4668L55.4019 18.2728C54.5959 18.3941 53.9936 18.4548 53.5949 18.4548C52.5809 18.4548 51.8789 18.1948 51.4889 17.6748C51.1076 17.1548 50.9169 16.2794 50.9169 15.0488C50.9169 13.8094 51.1249 12.9428 51.5409 12.4488C51.9569 11.9461 52.6502 11.6948 53.6209 11.6948ZM61.1958 17.5188L61.5728 17.4798L61.5988 18.2468C60.6108 18.3854 59.7658 18.4548 59.0638 18.4548C58.1278 18.4548 57.4648 18.1861 57.0748 17.6488C56.6848 17.1028 56.4898 16.2578 56.4898 15.1138C56.4898 12.8344 57.3955 11.6948 59.2068 11.6948C60.0822 11.6948 60.7365 11.9418 61.1698 12.4358C61.6032 12.9211 61.8198 13.6881 61.8198 14.7368L61.7678 15.4778H57.4778C57.4778 16.1971 57.6078 16.7301 57.8678 17.0768C58.1278 17.4234 58.5785 17.5968 59.2198 17.5968C59.8698 17.5968 60.5285 17.5708 61.1958 17.5188ZM60.8448 14.6978C60.8448 13.9004 60.7148 13.3371 60.4548 13.0078C60.2035 12.6784 59.7875 12.5138 59.2068 12.5138C58.6348 12.5138 58.2015 12.6871 57.9068 13.0338C57.6208 13.3804 57.4735 13.9351 57.4648 14.6978H60.8448ZM65.3803 12.5658C64.4357 12.5658 63.9633 12.8951 63.9633 13.5538C63.9633 13.8571 64.0717 14.0738 64.2883 14.2038C64.505 14.3251 64.999 14.4551 65.7703 14.5938C66.5417 14.7238 67.0877 14.9101 67.4083 15.1528C67.729 15.3954 67.8893 15.8504 67.8893 16.5178C67.8893 17.1851 67.6727 17.6748 67.2393 17.9868C66.8147 18.2988 66.1907 18.4548 65.3673 18.4548C64.83 18.4548 64.1973 18.3941 63.4693 18.2728L63.0793 18.2078L63.1313 17.3628C64.1193 17.5101 64.8647 17.5838 65.3673 17.5838C65.87 17.5838 66.2513 17.5058 66.5113 17.3498C66.78 17.1851 66.9143 16.9164 66.9143 16.5438C66.9143 16.1624 66.8017 15.9068 66.5763 15.7768C66.351 15.6381 65.857 15.5081 65.0943 15.3868C64.3317 15.2654 63.79 15.0878 63.4693 14.8538C63.1487 14.6198 62.9883 14.1864 62.9883 13.5538C62.9883 12.9211 63.2093 12.4531 63.6513 12.1498C64.102 11.8464 64.661 11.6948 65.3283 11.6948C65.857 11.6948 66.52 11.7554 67.3173 11.8768L67.6813 11.9418L67.6553 12.7738C66.6933 12.6351 65.935 12.5658 65.3803 12.5658ZM71.4233 12.5658C70.4786 12.5658 70.0063 12.8951 70.0063 13.5538C70.0063 13.8571 70.1146 14.0738 70.3313 14.2038C70.548 14.3251 71.042 14.4551 71.8133 14.5938C72.5846 14.7238 73.1306 14.9101 73.4513 15.1528C73.772 15.3954 73.9323 15.8504 73.9323 16.5178C73.9323 17.1851 73.7156 17.6748 73.2823 17.9868C72.8576 18.2988 72.2336 18.4548 71.4103 18.4548C70.873 18.4548 70.2403 18.3941 69.5123 18.2728L69.1223 18.2078L69.1743 17.3628C70.1623 17.5101 70.9076 17.5838 71.4103 17.5838C71.913 17.5838 72.2943 17.5058 72.5543 17.3498C72.823 17.1851 72.9573 16.9164 72.9573 16.5438C72.9573 16.1624 72.8446 15.9068 72.6193 15.7768C72.394 15.6381 71.9 15.5081 71.1373 15.3868C70.3746 15.2654 69.833 15.0878 69.5123 14.8538C69.1916 14.6198 69.0313 14.1864 69.0313 13.5538C69.0313 12.9211 69.2523 12.4531 69.6943 12.1498C70.145 11.8464 70.704 11.6948 71.3713 11.6948C71.9 11.6948 72.563 11.7554 73.3603 11.8768L73.7243 11.9418L73.6983 12.7738C72.7363 12.6351 71.978 12.5658 71.4233 12.5658ZM78.4507 18.3248V9.32877H80.2577L82.8057 16.9338L85.3537 9.32877H87.1607V18.3248H86.1597V10.3948H85.9777L83.3647 17.9998H82.2467L79.6337 10.3948H79.4517V18.3248H78.4507ZM93.7887 13.7878V17.1158C93.8147 17.4364 94.066 17.6271 94.5427 17.6878L94.5037 18.4548C93.819 18.4548 93.3033 18.2814 92.9567 17.9348C92.1767 18.2814 91.3967 18.4548 90.6167 18.4548C90.0187 18.4548 89.5637 18.2858 89.2517 17.9478C88.9397 17.6098 88.7837 17.1244 88.7837 16.4918C88.7837 15.8591 88.944 15.3954 89.2647 15.1008C89.5853 14.7974 90.088 14.6111 90.7727 14.5418L92.8137 14.3468V13.7878C92.8137 13.3458 92.7183 13.0294 92.5277 12.8388C92.337 12.6481 92.077 12.5528 91.7477 12.5528C91.0543 12.5528 90.335 12.5961 89.5897 12.6828L89.1867 12.7218L89.1477 11.9808C90.101 11.7901 90.946 11.6948 91.6827 11.6948C92.4193 11.6948 92.9523 11.8638 93.2817 12.2018C93.6197 12.5398 93.7887 13.0684 93.7887 13.7878ZM89.7847 16.4398C89.7847 17.2371 90.114 17.6358 90.7727 17.6358C91.362 17.6358 91.9427 17.5361 92.5147 17.3368L92.8137 17.2328V15.0878L90.8897 15.2698C90.4997 15.3044 90.218 15.4171 90.0447 15.6078C89.8713 15.7984 89.7847 16.0758 89.7847 16.4398ZM96.6874 18.3248H95.7124V11.8248H96.6744V12.2798C97.3764 11.8898 98.048 11.6948 98.6894 11.6948C99.556 11.6948 100.137 11.9288 100.431 12.3968C100.735 12.8648 100.886 13.6968 100.886 14.8928V18.3248H99.9244V14.9188C99.9244 14.0174 99.8334 13.4021 99.6514 13.0728C99.478 12.7348 99.101 12.5658 98.5204 12.5658C98.243 12.5658 97.9484 12.6091 97.6364 12.6958C97.333 12.7738 97.099 12.8518 96.9344 12.9298L96.6874 13.0468V18.3248ZM107.284 13.7878V17.1158C107.31 17.4364 107.561 17.6271 108.038 17.6878L107.999 18.4548C107.314 18.4548 106.798 18.2814 106.452 17.9348C105.672 18.2814 104.892 18.4548 104.112 18.4548C103.514 18.4548 103.059 18.2858 102.747 17.9478C102.435 17.6098 102.279 17.1244 102.279 16.4918C102.279 15.8591 102.439 15.3954 102.76 15.1008C103.08 14.7974 103.583 14.6111 104.268 14.5418L106.309 14.3468V13.7878C106.309 13.3458 106.213 13.0294 106.023 12.8388C105.832 12.6481 105.572 12.5528 105.243 12.5528C104.549 12.5528 103.83 12.5961 103.085 12.6828L102.682 12.7218L102.643 11.9808C103.596 11.7901 104.441 11.6948 105.178 11.6948C105.914 11.6948 106.447 11.8638 106.777 12.2018C107.115 12.5398 107.284 13.0684 107.284 13.7878ZM103.28 16.4398C103.28 17.2371 103.609 17.6358 104.268 17.6358C104.857 17.6358 105.438 17.5361 106.01 17.3368L106.309 17.2328V15.0878L104.385 15.2698C103.995 15.3044 103.713 15.4171 103.54 15.6078C103.366 15.7984 103.28 16.0758 103.28 16.4398ZM111.716 21.3798C110.676 21.3798 109.948 21.2368 109.532 20.9508C109.125 20.6734 108.921 20.1621 108.921 19.4168C108.921 19.0614 108.999 18.7711 109.155 18.5458C109.311 18.3291 109.576 18.0821 109.948 17.8048C109.706 17.6401 109.584 17.3411 109.584 16.9078C109.584 16.7604 109.693 16.4874 109.909 16.0888L110.026 15.8808C109.342 15.5688 108.999 14.9144 108.999 13.9178C108.999 12.4358 109.81 11.6948 111.43 11.6948C111.846 11.6948 112.232 11.7381 112.587 11.8248L112.782 11.8638L114.706 11.8118V12.6438L113.471 12.6178C113.757 12.9038 113.9 13.3371 113.9 13.9178C113.9 14.7324 113.697 15.3044 113.289 15.6338C112.891 15.9544 112.258 16.1148 111.391 16.1148C111.157 16.1148 110.945 16.0974 110.754 16.0628C110.598 16.4441 110.52 16.6911 110.52 16.8038C110.52 17.0724 110.603 17.2414 110.767 17.3108C110.932 17.3714 111.43 17.4018 112.262 17.4018C113.094 17.4018 113.692 17.5318 114.056 17.7918C114.42 18.0518 114.602 18.5588 114.602 19.3128C114.602 20.6908 113.64 21.3798 111.716 21.3798ZM109.883 19.3388C109.883 19.7981 110.009 20.1144 110.26 20.2878C110.52 20.4698 110.993 20.5608 111.677 20.5608C112.371 20.5608 112.865 20.4654 113.159 20.2748C113.463 20.0841 113.614 19.7634 113.614 19.3128C113.614 18.8708 113.506 18.5848 113.289 18.4548C113.073 18.3248 112.648 18.2598 112.015 18.2598L110.611 18.1948C110.325 18.4028 110.13 18.5848 110.026 18.7408C109.931 18.8968 109.883 19.0961 109.883 19.3388ZM109.974 13.9178C109.974 14.4291 110.087 14.7931 110.312 15.0098C110.546 15.2264 110.928 15.3348 111.456 15.3348C111.985 15.3348 112.362 15.2264 112.587 15.0098C112.813 14.7931 112.925 14.4291 112.925 13.9178C112.925 13.3978 112.813 13.0294 112.587 12.8128C112.362 12.5961 111.985 12.4878 111.456 12.4878C110.928 12.4878 110.546 12.6004 110.312 12.8258C110.087 13.0424 109.974 13.4064 109.974 13.9178ZM120.305 17.5188L120.682 17.4798L120.708 18.2468C119.72 18.3854 118.875 18.4548 118.173 18.4548C117.237 18.4548 116.574 18.1861 116.184 17.6488C115.794 17.1028 115.599 16.2578 115.599 15.1138C115.599 12.8344 116.505 11.6948 118.316 11.6948C119.192 11.6948 119.846 11.9418 120.279 12.4358C120.713 12.9211 120.929 13.6881 120.929 14.7368L120.877 15.4778H116.587C116.587 16.1971 116.717 16.7301 116.977 17.0768C117.237 17.4234 117.688 17.5968 118.329 17.5968C118.979 17.5968 119.638 17.5708 120.305 17.5188ZM119.954 14.6978C119.954 13.9004 119.824 13.3371 119.564 13.0078C119.313 12.6784 118.897 12.5138 118.316 12.5138C117.744 12.5138 117.311 12.6871 117.016 13.0338C116.73 13.3804 116.583 13.9351 116.574 14.6978H119.954ZM123.424 18.3248H122.449V11.8248H123.411V12.2798C124.061 11.8898 124.693 11.6948 125.309 11.6948C126.115 11.6948 126.678 11.9158 126.999 12.3578C127.285 12.1844 127.653 12.0328 128.104 11.9028C128.563 11.7641 128.966 11.6948 129.313 11.6948C130.179 11.6948 130.76 11.9288 131.055 12.3968C131.358 12.8561 131.51 13.6881 131.51 14.8928V18.3248H130.535V14.9188C130.535 14.0174 130.448 13.4021 130.275 13.0728C130.101 12.7348 129.733 12.5658 129.17 12.5658C128.884 12.5658 128.589 12.6091 128.286 12.6958C127.982 12.7738 127.748 12.8518 127.584 12.9298L127.337 13.0468C127.449 13.3328 127.506 13.9654 127.506 14.9448V18.3248H126.531V14.9708C126.531 14.0348 126.444 13.4021 126.271 13.0728C126.106 12.7348 125.738 12.5658 125.166 12.5658C124.888 12.5658 124.602 12.6091 124.308 12.6958C124.022 12.7738 123.801 12.8518 123.645 12.9298L123.424 13.0468V18.3248ZM137.736 17.5188L138.113 17.4798L138.139 18.2468C137.151 18.3854 136.306 18.4548 135.604 18.4548C134.668 18.4548 134.005 18.1861 133.615 17.6488C133.225 17.1028 133.03 16.2578 133.03 15.1138C133.03 12.8344 133.936 11.6948 135.747 11.6948C136.622 11.6948 137.277 11.9418 137.71 12.4358C138.143 12.9211 138.36 13.6881 138.36 14.7368L138.308 15.4778H134.018C134.018 16.1971 134.148 16.7301 134.408 17.0768C134.668 17.4234 135.119 17.5968 135.76 17.5968C136.41 17.5968 137.069 17.5708 137.736 17.5188ZM137.385 14.6978C137.385 13.9004 137.255 13.3371 136.995 13.0078C136.744 12.6784 136.328 12.5138 135.747 12.5138C135.175 12.5138 134.742 12.6871 134.447 13.0338C134.161 13.3804 134.014 13.9351 134.005 14.6978H137.385ZM140.854 18.3248H139.879V11.8248H140.841V12.2798C141.543 11.8898 142.215 11.6948 142.856 11.6948C143.723 11.6948 144.304 11.9288 144.598 12.3968C144.902 12.8648 145.053 13.6968 145.053 14.8928V18.3248H144.091V14.9188C144.091 14.0174 144 13.4021 143.818 13.0728C143.645 12.7348 143.268 12.5658 142.687 12.5658C142.41 12.5658 142.115 12.6091 141.803 12.6958C141.5 12.7738 141.266 12.8518 141.101 12.9298L140.854 13.0468V18.3248ZM150.191 12.6698H148.124V15.7768C148.124 16.5221 148.176 17.0118 148.28 17.2458C148.392 17.4798 148.652 17.5968 149.06 17.5968L150.217 17.5188L150.282 18.3248C149.701 18.4201 149.259 18.4678 148.956 18.4678C148.28 18.4678 147.812 18.3031 147.552 17.9738C147.292 17.6444 147.162 17.0161 147.162 16.0888V12.6698H146.239V11.8248H147.162V9.83577H148.124V11.8248H150.191V12.6698Z" fill="#1F1F1F"/>
<path d="M13.3398 12.1581V13.9514C14.2398 14.2281 15.0065 14.9464 15.0065 15.9914V19.9914C15.0065 21.3514 13.7048 22.1581 12.5065 22.1581H7.50647C6.30814 22.1581 5.00647 21.3514 5.00647 19.9914V15.9914C5.00647 14.9464 5.77314 14.2281 6.67314 13.9514V12.1581C6.67314 11.274 7.02433 10.4262 7.64945 9.80106C8.27457 9.17594 9.12241 8.82475 10.0065 8.82475C10.8905 8.82475 11.7384 9.17594 12.3635 9.80106C12.9886 10.4262 13.3398 11.274 13.3398 12.1581ZM8.3398 12.1581V13.8248H11.6731V12.1581C11.6731 11.7161 11.4975 11.2921 11.185 10.9796C10.8724 10.667 10.4485 10.4914 10.0065 10.4914C9.56444 10.4914 9.14052 10.667 8.82796 10.9796C8.5154 11.2921 8.3398 11.7161 8.3398 12.1581ZM6.67314 15.9914V19.9914C6.67314 20.0614 6.70647 20.1698 6.84814 20.2831C7.03824 20.4239 7.26994 20.4973 7.50647 20.4914H12.5065C12.7429 20.4969 12.9745 20.4236 13.1648 20.2831C13.3065 20.1698 13.3398 20.0614 13.3398 19.9914V15.9914C13.3398 15.9214 13.3065 15.8131 13.1648 15.6998C12.9747 15.5589 12.743 15.4856 12.5065 15.4914H7.50647C7.26994 15.4856 7.03824 15.5589 6.84814 15.6998C6.70647 15.8131 6.67314 15.9214 6.67314 15.9914Z" fill="#003952"/>
<path d="M20.0065 23.8248V7.99142L12.5065 0.491425H3.3398C2.45575 0.491425 1.6079 0.842614 0.98278 1.46774C0.357659 2.09286 0.00646973 2.9407 0.00646973 3.82476V23.8248C0.00646973 24.7088 0.357659 25.5567 0.98278 26.1818C1.6079 26.8069 2.45575 27.1581 3.3398 27.1581H16.6731C17.5572 27.1581 18.405 26.8069 19.0302 26.1818C19.6553 25.5567 20.0065 24.7088 20.0065 23.8248ZM12.5065 5.49142C12.5065 6.15447 12.7699 6.79035 13.2387 7.25919C13.7075 7.72803 14.3434 7.99142 15.0065 7.99142H18.3398V23.8248C18.3398 24.2668 18.1642 24.6907 17.8516 25.0033C17.5391 25.3158 17.1152 25.4914 16.6731 25.4914H3.3398C2.89778 25.4914 2.47385 25.3158 2.16129 25.0033C1.84873 24.6907 1.67314 24.2668 1.67314 23.8248V3.82476C1.67314 3.38273 1.84873 2.95881 2.16129 2.64625C2.47385 2.33369 2.89778 2.15809 3.3398 2.15809H12.5065V5.49142Z" fill="#003952"/>
</svg>
