<svg width="146" height="23" viewBox="0 0 146 23" fill="none" xmlns="http://www.w3.org/2000/svg">
<path d="M39.405 13.303C39.405 14.4557 40.0117 15.032 41.225 15.032C42.4383 15.032 43.045 14.4557 43.045 13.303V7.24502H44.501V13.277C44.501 14.3257 44.2237 15.0927 43.669 15.578C43.123 16.0547 42.304 16.293 41.212 16.293C40.1287 16.293 39.314 16.0547 38.768 15.578C38.222 15.0927 37.949 14.3257 37.949 13.277V7.24502H39.405V13.303ZM50.7606 10.989C49.7379 10.8504 48.9969 10.781 48.5376 10.781C48.0783 10.781 47.7576 10.8374 47.5756 10.95C47.4023 11.054 47.3156 11.223 47.3156 11.457C47.3156 11.691 47.4109 11.8557 47.6016 11.951C47.8009 12.0464 48.2603 12.159 48.9796 12.289C49.7076 12.4104 50.2233 12.6054 50.5266 12.874C50.8299 13.1427 50.9816 13.6194 50.9816 14.304C50.9816 14.9887 50.7606 15.4914 50.3186 15.812C49.8853 16.1327 49.2483 16.293 48.4076 16.293C47.8789 16.293 47.2116 16.2194 46.4056 16.072L46.0026 16.007L46.0546 14.824C47.0946 14.9627 47.8443 15.032 48.3036 15.032C48.7629 15.032 49.0879 14.9757 49.2786 14.863C49.4779 14.7504 49.5776 14.564 49.5776 14.304C49.5776 14.044 49.4823 13.8664 49.2916 13.771C49.1096 13.667 48.6633 13.5587 47.9526 13.446C47.2506 13.3247 46.7349 13.1384 46.4056 12.887C46.0763 12.6357 45.9116 12.1764 45.9116 11.509C45.9116 10.8417 46.1369 10.3434 46.5876 10.014C47.0469 9.68469 47.6319 9.52002 48.3426 9.52002C48.8973 9.52002 49.5776 9.58936 50.3836 9.72802L50.7866 9.80602L50.7606 10.989ZM56.9714 14.98L57.3354 14.941L57.3614 15.994C56.3734 16.1934 55.498 16.293 54.7354 16.293C53.7734 16.293 53.08 16.0287 52.6554 15.5C52.2394 14.9714 52.0314 14.1264 52.0314 12.965C52.0314 10.6597 52.9717 9.50702 54.8524 9.50702C56.6724 9.50702 57.5824 10.4994 57.5824 12.484L57.4914 13.498H53.4614C53.47 14.0354 53.587 14.4297 53.8124 14.681C54.0377 14.9324 54.458 15.058 55.0734 15.058C55.6887 15.058 56.3214 15.032 56.9714 14.98ZM56.1914 12.406C56.1914 11.7647 56.0874 11.3184 55.8794 11.067C55.68 10.807 55.3377 10.677 54.8524 10.677C54.367 10.677 54.0117 10.8114 53.7864 11.08C53.5697 11.3487 53.457 11.7907 53.4484 12.406H56.1914ZM58.9449 16.15V9.65002H60.3489V10.43C61.0856 9.95336 61.8222 9.64569 62.5589 9.50702V10.924C61.8136 11.0714 61.1766 11.262 60.6479 11.496L60.3619 11.613V16.15H58.9449ZM68.1532 10.989C67.1305 10.8504 66.3895 10.781 65.9302 10.781C65.4708 10.781 65.1502 10.8374 64.9682 10.95C64.7948 11.054 64.7082 11.223 64.7082 11.457C64.7082 11.691 64.8035 11.8557 64.9942 11.951C65.1935 12.0464 65.6528 12.159 66.3722 12.289C67.1002 12.4104 67.6158 12.6054 67.9192 12.874C68.2225 13.1427 68.3742 13.6194 68.3742 14.304C68.3742 14.9887 68.1532 15.4914 67.7112 15.812C67.2778 16.1327 66.6408 16.293 65.8002 16.293C65.2715 16.293 64.6042 16.2194 63.7982 16.072L63.3952 16.007L63.4472 14.824C64.4872 14.9627 65.2368 15.032 65.6962 15.032C66.1555 15.032 66.4805 14.9757 66.6712 14.863C66.8705 14.7504 66.9702 14.564 66.9702 14.304C66.9702 14.044 66.8748 13.8664 66.6842 13.771C66.5022 13.667 66.0558 13.5587 65.3452 13.446C64.6432 13.3247 64.1275 13.1384 63.7982 12.887C63.4688 12.6357 63.3042 12.1764 63.3042 11.509C63.3042 10.8417 63.5295 10.3434 63.9802 10.014C64.4395 9.68469 65.0245 9.52002 65.7352 9.52002C66.2898 9.52002 66.9702 9.58936 67.7762 9.72802L68.1792 9.80602L68.1532 10.989ZM72.7614 16.15V7.24502H75.2704L77.2594 14.2L79.2484 7.24502H81.7704V16.15H80.3144V8.84402H80.1194L78.0134 15.786H76.5054L74.3994 8.84402H74.2044V16.15H72.7614ZM88.4473 11.652V14.616C88.456 14.8067 88.5036 14.9497 88.5903 15.045C88.6856 15.1317 88.8286 15.188 89.0193 15.214L88.9803 16.293C88.235 16.293 87.6586 16.1327 87.2513 15.812C86.558 16.1327 85.8603 16.293 85.1583 16.293C83.867 16.293 83.2213 15.604 83.2213 14.226C83.2213 13.5674 83.3946 13.0907 83.7413 12.796C84.0966 12.5014 84.6383 12.3237 85.3663 12.263L87.0433 12.12V11.652C87.0433 11.3054 86.9653 11.0627 86.8093 10.924C86.662 10.7854 86.441 10.716 86.1463 10.716C85.5916 10.716 84.8983 10.7507 84.0663 10.82L83.6503 10.846L83.5983 9.84502C84.543 9.61969 85.4096 9.50702 86.1983 9.50702C86.9956 9.50702 87.5676 9.68036 87.9143 10.027C88.2696 10.365 88.4473 10.9067 88.4473 11.652ZM85.5353 13.264C84.9373 13.316 84.6383 13.641 84.6383 14.239C84.6383 14.837 84.9026 15.136 85.4313 15.136C85.8646 15.136 86.324 15.0667 86.8093 14.928L87.0433 14.85V13.121L85.5353 13.264ZM91.6432 16.15H90.2262V9.65002H91.6302V10.053C92.2628 9.68902 92.8608 9.50702 93.4242 9.50702C94.2908 9.50702 94.8802 9.75402 95.1922 10.248C95.5128 10.7334 95.6732 11.5394 95.6732 12.666V16.15H94.2692V12.705C94.2692 12.003 94.1912 11.5047 94.0352 11.21C93.8878 10.9154 93.5802 10.768 93.1122 10.768C92.6702 10.768 92.2455 10.8547 91.8382 11.028L91.6432 11.106V16.15ZM102.133 11.652V14.616C102.142 14.8067 102.189 14.9497 102.276 15.045C102.371 15.1317 102.514 15.188 102.705 15.214L102.666 16.293C101.921 16.293 101.344 16.1327 100.937 15.812C100.244 16.1327 99.5458 16.293 98.8438 16.293C97.5525 16.293 96.9068 15.604 96.9068 14.226C96.9068 13.5674 97.0802 13.0907 97.4268 12.796C97.7822 12.5014 98.3238 12.3237 99.0518 12.263L100.729 12.12V11.652C100.729 11.3054 100.651 11.0627 100.495 10.924C100.348 10.7854 100.127 10.716 99.8318 10.716C99.2772 10.716 98.5838 10.7507 97.7518 10.82L97.3358 10.846L97.2838 9.84502C98.2285 9.61969 99.0952 9.50702 99.8838 9.50702C100.681 9.50702 101.253 9.68036 101.6 10.027C101.955 10.365 102.133 10.9067 102.133 11.652ZM99.2208 13.264C98.6228 13.316 98.3238 13.641 98.3238 14.239C98.3238 14.837 98.5882 15.136 99.1168 15.136C99.5502 15.136 100.01 15.0667 100.495 14.928L100.729 14.85V13.121L99.2208 13.264ZM109.593 17.034C109.593 18.4554 108.566 19.166 106.512 19.166C105.524 19.166 104.791 19.0317 104.315 18.763C103.838 18.4944 103.6 18.0047 103.6 17.294C103.6 16.9734 103.678 16.696 103.834 16.462C103.99 16.2367 104.241 15.9897 104.588 15.721C104.302 15.5304 104.159 15.214 104.159 14.772C104.159 14.5987 104.276 14.317 104.51 13.927L104.627 13.732C104.003 13.3594 103.691 12.7094 103.691 11.782C103.691 11.002 103.925 10.43 104.393 10.066C104.861 9.70202 105.493 9.52002 106.291 9.52002C106.672 9.52002 107.049 9.56336 107.422 9.65002L107.617 9.68902L109.632 9.63702V10.781L108.553 10.716C108.787 11.0194 108.904 11.3747 108.904 11.782C108.904 12.6314 108.687 13.2207 108.254 13.55C107.829 13.8707 107.162 14.031 106.252 14.031C106.026 14.031 105.836 14.0137 105.68 13.979C105.558 14.2737 105.498 14.5034 105.498 14.668C105.498 14.824 105.576 14.9324 105.732 14.993C105.896 15.0537 106.286 15.0884 106.902 15.097C107.933 15.1057 108.639 15.2444 109.021 15.513C109.402 15.7817 109.593 16.2887 109.593 17.034ZM104.991 17.164C104.991 17.4674 105.112 17.684 105.355 17.814C105.597 17.944 106.013 18.009 106.603 18.009C107.651 18.009 108.176 17.71 108.176 17.112C108.176 16.774 108.08 16.5574 107.89 16.462C107.708 16.3754 107.339 16.3277 106.785 16.319L105.511 16.241C105.32 16.397 105.186 16.54 105.108 16.67C105.03 16.8087 104.991 16.9734 104.991 17.164ZM105.095 11.782C105.095 12.1807 105.19 12.4754 105.381 12.666C105.571 12.848 105.879 12.939 106.304 12.939C106.728 12.939 107.032 12.848 107.214 12.666C107.404 12.4754 107.5 12.1807 107.5 11.782C107.5 11.3834 107.404 11.093 107.214 10.911C107.023 10.7204 106.715 10.625 106.291 10.625C105.493 10.625 105.095 11.0107 105.095 11.782ZM115.37 14.98L115.734 14.941L115.76 15.994C114.772 16.1934 113.896 16.293 113.134 16.293C112.172 16.293 111.478 16.0287 111.054 15.5C110.638 14.9714 110.43 14.1264 110.43 12.965C110.43 10.6597 111.37 9.50702 113.251 9.50702C115.071 9.50702 115.981 10.4994 115.981 12.484L115.89 13.498H111.86C111.868 14.0354 111.985 14.4297 112.211 14.681C112.436 14.9324 112.856 15.058 113.472 15.058C114.087 15.058 114.72 15.032 115.37 14.98ZM114.59 12.406C114.59 11.7647 114.486 11.3184 114.278 11.067C114.078 10.807 113.736 10.677 113.251 10.677C112.765 10.677 112.41 10.8114 112.185 11.08C111.968 11.3487 111.855 11.7907 111.847 12.406H114.59ZM118.76 16.15H117.343V9.65002H118.747V10.053C119.363 9.68902 119.926 9.50702 120.437 9.50702C121.191 9.50702 121.742 9.71936 122.088 10.144C122.877 9.71936 123.661 9.50702 124.441 9.50702C125.221 9.50702 125.772 9.74969 126.092 10.235C126.413 10.7117 126.573 11.522 126.573 12.666V16.15H125.169V12.705C125.169 12.003 125.096 11.5047 124.948 11.21C124.81 10.9154 124.515 10.768 124.064 10.768C123.674 10.768 123.254 10.8547 122.803 11.028L122.582 11.119C122.652 11.2924 122.686 11.847 122.686 12.783V16.15H121.282V12.809C121.282 12.0377 121.213 11.5047 121.074 11.21C120.936 10.9154 120.632 10.768 120.164 10.768C119.731 10.768 119.328 10.8547 118.955 11.028L118.76 11.106V16.15ZM132.864 14.98L133.228 14.941L133.254 15.994C132.266 16.1934 131.391 16.293 130.628 16.293C129.666 16.293 128.973 16.0287 128.548 15.5C128.132 14.9714 127.924 14.1264 127.924 12.965C127.924 10.6597 128.864 9.50702 130.745 9.50702C132.565 9.50702 133.475 10.4994 133.475 12.484L133.384 13.498H129.354C129.363 14.0354 129.48 14.4297 129.705 14.681C129.93 14.9324 130.351 15.058 130.966 15.058C131.581 15.058 132.214 15.032 132.864 14.98ZM132.084 12.406C132.084 11.7647 131.98 11.3184 131.772 11.067C131.573 10.807 131.23 10.677 130.745 10.677C130.26 10.677 129.904 10.8114 129.679 11.08C129.462 11.3487 129.35 11.7907 129.341 12.406H132.084ZM136.254 16.15H134.837V9.65002H136.241V10.053C136.874 9.68902 137.472 9.50702 138.035 9.50702C138.902 9.50702 139.491 9.75402 139.803 10.248C140.124 10.7334 140.284 11.5394 140.284 12.666V16.15H138.88V12.705C138.88 12.003 138.802 11.5047 138.646 11.21C138.499 10.9154 138.191 10.768 137.723 10.768C137.281 10.768 136.857 10.8547 136.449 11.028L136.254 11.106V16.15ZM145.431 10.859H143.637V13.719C143.637 14.2477 143.676 14.5987 143.754 14.772C143.832 14.9454 144.032 15.032 144.352 15.032L145.418 14.993L145.483 16.124C144.903 16.2367 144.461 16.293 144.157 16.293C143.421 16.293 142.914 16.124 142.636 15.786C142.368 15.448 142.233 14.811 142.233 13.875V10.859H141.401V9.65002H142.233V7.76502H143.637V9.65002H145.431V10.859Z" fill="#1F1F1F"/>
<path d="M4.21697 6.4395C4.21697 4.90403 4.82693 3.43146 5.91267 2.34572C6.99841 1.25999 8.47098 0.650024 10.0064 0.650024C11.5419 0.650024 13.0145 1.25999 14.1002 2.34572C15.186 3.43146 15.7959 4.90403 15.7959 6.4395C15.7959 7.97496 15.186 9.44754 14.1002 10.5333C13.0145 11.619 11.5419 12.229 10.0064 12.229C8.47098 12.229 6.99841 11.619 5.91267 10.5333C4.82693 9.44754 4.21697 7.97496 4.21697 6.4395ZM10.0064 9.91318C10.9277 9.91318 11.8113 9.54721 12.4627 8.89576C13.1142 8.24432 13.4801 7.36078 13.4801 6.4395C13.4801 5.51822 13.1142 4.63467 12.4627 3.98323C11.8113 3.33179 10.9277 2.96581 10.0064 2.96581C9.08517 2.96581 8.20162 3.33179 7.55018 3.98323C6.89874 4.63467 6.53276 5.51822 6.53276 6.4395C6.53276 7.36078 6.89874 8.24432 7.55018 8.89576C8.20162 9.54721 9.08517 9.91318 10.0064 9.91318ZM3.45623 16.0998C2.59608 16.96 1.91378 17.9812 1.44829 19.1051C0.982803 20.229 0.743242 21.4336 0.743286 22.65H3.05908C3.05908 20.8075 3.79103 19.0404 5.09391 17.7375C6.3968 16.4346 8.16389 15.7027 10.0064 15.7027C11.849 15.7027 13.6161 16.4346 14.919 17.7375C16.2219 19.0404 16.9538 20.8075 16.9538 22.65H19.2696C19.2697 20.8179 18.7264 19.0269 17.7086 17.5035C16.6907 15.9801 15.244 14.7928 13.5513 14.0917C11.8587 13.3905 9.99612 13.2071 8.1992 13.5645C6.40228 13.922 4.75171 14.8043 3.45623 16.0998Z" fill="#003952" stroke="white" stroke-width="0.2"/>
</svg>
