<svg width="184" height="23" viewBox="0 0 184 23" fill="none" xmlns="http://www.w3.org/2000/svg">
<path d="M39.768 11.8492C39.768 13.1665 39.9413 14.1155 40.288 14.6962C40.6347 15.2682 41.302 15.5542 42.29 15.5542C43.2867 15.5542 43.954 15.2725 44.292 14.7092C44.6387 14.1459 44.812 13.2012 44.812 11.8752C44.812 10.5492 44.6343 9.58286 44.279 8.9762C43.9237 8.36953 43.2563 8.0662 42.277 8.0662C41.3063 8.0662 40.6433 8.36953 40.288 8.9762C39.9413 9.5742 39.768 10.5319 39.768 11.8492ZM45.852 11.8752C45.852 13.4785 45.5963 14.6399 45.085 15.3592C44.5737 16.0785 43.642 16.4382 42.29 16.4382C40.9467 16.4382 40.0193 16.0699 39.508 15.3332C38.9967 14.5965 38.741 13.4395 38.741 11.8622C38.741 10.2762 39.001 9.10186 39.521 8.3392C40.041 7.56786 40.964 7.1822 42.29 7.1822C43.616 7.1822 44.539 7.56353 45.059 8.3262C45.5877 9.08886 45.852 10.2719 45.852 11.8752ZM47.518 16.3082V9.8082H48.48V10.6922C49.234 10.1722 50.027 9.82986 50.859 9.6652V10.6532C50.495 10.7225 50.1137 10.8309 49.715 10.9782C49.325 11.1255 49.026 11.2555 48.818 11.3682L48.493 11.5372V16.3082H47.518ZM54.4323 19.3632C53.3923 19.3632 52.6643 19.2202 52.2483 18.9342C51.841 18.6569 51.6373 18.1455 51.6373 17.4002C51.6373 17.0449 51.7153 16.7545 51.8713 16.5292C52.0273 16.3125 52.2916 16.0655 52.6643 15.7882C52.4216 15.6235 52.3003 15.3245 52.3003 14.8912C52.3003 14.7439 52.4086 14.4709 52.6253 14.0722L52.7423 13.8642C52.0576 13.5522 51.7153 12.8979 51.7153 11.9012C51.7153 10.4192 52.5256 9.6782 54.1463 9.6782C54.5623 9.6782 54.948 9.72153 55.3033 9.8082L55.4983 9.8472L57.4223 9.7952V10.6272L56.1873 10.6012C56.4733 10.8872 56.6163 11.3205 56.6163 11.9012C56.6163 12.7159 56.4126 13.2879 56.0053 13.6172C55.6066 13.9379 54.974 14.0982 54.1073 14.0982C53.8733 14.0982 53.661 14.0809 53.4703 14.0462C53.3143 14.4275 53.2363 14.6745 53.2363 14.7872C53.2363 15.0559 53.3186 15.2249 53.4833 15.2942C53.648 15.3549 54.1463 15.3852 54.9783 15.3852C55.8103 15.3852 56.4083 15.5152 56.7723 15.7752C57.1363 16.0352 57.3183 16.5422 57.3183 17.2962C57.3183 18.6742 56.3563 19.3632 54.4323 19.3632ZM52.5993 17.3222C52.5993 17.7815 52.725 18.0979 52.9763 18.2712C53.2363 18.4532 53.7086 18.5442 54.3933 18.5442C55.0866 18.5442 55.5806 18.4489 55.8753 18.2582C56.1786 18.0675 56.3303 17.7469 56.3303 17.2962C56.3303 16.8542 56.222 16.5682 56.0053 16.4382C55.7886 16.3082 55.364 16.2432 54.7313 16.2432L53.3273 16.1782C53.0413 16.3862 52.8463 16.5682 52.7423 16.7242C52.647 16.8802 52.5993 17.0795 52.5993 17.3222ZM52.6903 11.9012C52.6903 12.4125 52.803 12.7765 53.0283 12.9932C53.2623 13.2099 53.6436 13.3182 54.1723 13.3182C54.701 13.3182 55.078 13.2099 55.3033 12.9932C55.5286 12.7765 55.6413 12.4125 55.6413 11.9012C55.6413 11.3812 55.5286 11.0129 55.3033 10.7962C55.078 10.5795 54.701 10.4712 54.1723 10.4712C53.6436 10.4712 53.2623 10.5839 53.0283 10.8092C52.803 11.0259 52.6903 11.3899 52.6903 11.9012ZM63.19 11.7712V15.0992C63.216 15.4199 63.4674 15.6105 63.944 15.6712L63.905 16.4382C63.2204 16.4382 62.7047 16.2649 62.358 15.9182C61.578 16.2649 60.798 16.4382 60.018 16.4382C59.42 16.4382 58.965 16.2692 58.653 15.9312C58.341 15.5932 58.185 15.1079 58.185 14.4752C58.185 13.8425 58.3454 13.3789 58.666 13.0842C58.9867 12.7809 59.4894 12.5945 60.174 12.5252L62.215 12.3302V11.7712C62.215 11.3292 62.1197 11.0129 61.929 10.8222C61.7384 10.6315 61.4784 10.5362 61.149 10.5362C60.4557 10.5362 59.7364 10.5795 58.991 10.6662L58.588 10.7052L58.549 9.9642C59.5024 9.77353 60.3474 9.6782 61.084 9.6782C61.8207 9.6782 62.3537 9.8472 62.683 10.1852C63.021 10.5232 63.19 11.0519 63.19 11.7712ZM59.186 14.4232C59.186 15.2205 59.5154 15.6192 60.174 15.6192C60.7634 15.6192 61.344 15.5195 61.916 15.3202L62.215 15.2162V13.0712L60.291 13.2532C59.901 13.2879 59.6194 13.4005 59.446 13.5912C59.2727 13.7819 59.186 14.0592 59.186 14.4232ZM66.0887 16.3082H65.1137V9.8082H66.0757V10.2632C66.7777 9.8732 67.4494 9.6782 68.0907 9.6782C68.9574 9.6782 69.5381 9.9122 69.8327 10.3802C70.1361 10.8482 70.2877 11.6802 70.2877 12.8762V16.3082H69.3257V12.9022C69.3257 12.0009 69.2347 11.3855 69.0527 11.0562C68.8794 10.7182 68.5024 10.5492 67.9217 10.5492C67.6444 10.5492 67.3497 10.5925 67.0377 10.6792C66.7344 10.7572 66.5004 10.8352 66.3357 10.9132L66.0887 11.0302V16.3082ZM72.0962 16.3082V9.8082H73.0712V16.3082H72.0962ZM72.0962 8.3392V7.2082H73.0712V8.3392H72.0962ZM74.5499 10.6792V9.8082H79.3729V10.6792L75.7329 15.4372H79.3729V16.3082H74.5499V15.4372L78.1899 10.6792H74.5499ZM85.4449 11.7712V15.0992C85.4709 15.4199 85.7223 15.6105 86.1989 15.6712L86.1599 16.4382C85.4753 16.4382 84.9596 16.2649 84.6129 15.9182C83.8329 16.2649 83.0529 16.4382 82.2729 16.4382C81.6749 16.4382 81.2199 16.2692 80.9079 15.9312C80.5959 15.5932 80.4399 15.1079 80.4399 14.4752C80.4399 13.8425 80.6003 13.3789 80.9209 13.0842C81.2416 12.7809 81.7443 12.5945 82.4289 12.5252L84.4699 12.3302V11.7712C84.4699 11.3292 84.3746 11.0129 84.1839 10.8222C83.9933 10.6315 83.7333 10.5362 83.4039 10.5362C82.7106 10.5362 81.9913 10.5795 81.2459 10.6662L80.8429 10.7052L80.8039 9.9642C81.7573 9.77353 82.6023 9.6782 83.3389 9.6782C84.0756 9.6782 84.6086 9.8472 84.9379 10.1852C85.2759 10.5232 85.4449 11.0519 85.4449 11.7712ZM81.4409 14.4232C81.4409 15.2205 81.7703 15.6192 82.4289 15.6192C83.0183 15.6192 83.5989 15.5195 84.1709 15.3202L84.4699 15.2162V13.0712L82.5459 13.2532C82.1559 13.2879 81.8743 13.4005 81.7009 13.5912C81.5276 13.7819 81.4409 14.0592 81.4409 14.4232ZM90.7356 10.6532H88.6686V13.7602C88.6686 14.5055 88.7206 14.9952 88.8246 15.2292C88.9373 15.4632 89.1973 15.5802 89.6046 15.5802L90.7616 15.5022L90.8266 16.3082C90.246 16.4035 89.804 16.4512 89.5006 16.4512C88.8246 16.4512 88.3566 16.2865 88.0966 15.9572C87.8366 15.6279 87.7066 14.9995 87.7066 14.0722V10.6532H86.7836V9.8082H87.7066V7.8192H88.6686V9.8082H90.7356V10.6532ZM91.9262 16.3082V9.8082H92.9012V16.3082H91.9262ZM91.9262 8.3392V7.2082H92.9012V8.3392H91.9262ZM94.484 13.0452C94.484 11.8579 94.6963 10.9999 95.121 10.4712C95.5457 9.94253 96.2607 9.6782 97.266 9.6782C98.28 9.6782 98.995 9.94253 99.411 10.4712C99.8357 10.9999 100.048 11.8579 100.048 13.0452C100.048 14.2325 99.8487 15.0949 99.45 15.6322C99.0513 16.1695 98.3233 16.4382 97.266 16.4382C96.2087 16.4382 95.4807 16.1695 95.082 15.6322C94.6833 15.0949 94.484 14.2325 94.484 13.0452ZM95.485 13.0322C95.485 13.9769 95.5977 14.6399 95.823 15.0212C96.057 15.4025 96.538 15.5932 97.266 15.5932C98.0027 15.5932 98.4837 15.4069 98.709 15.0342C98.9343 14.6529 99.047 13.9855 99.047 13.0322C99.047 12.0789 98.9213 11.4245 98.67 11.0692C98.4187 10.7052 97.9507 10.5232 97.266 10.5232C96.59 10.5232 96.122 10.7052 95.862 11.0692C95.6107 11.4245 95.485 12.0789 95.485 13.0322ZM102.613 16.3082H101.638V9.8082H102.6V10.2632C103.302 9.8732 103.974 9.6782 104.615 9.6782C105.482 9.6782 106.062 9.9122 106.357 10.3802C106.66 10.8482 106.812 11.6802 106.812 12.8762V16.3082H105.85V12.9022C105.85 12.0009 105.759 11.3855 105.577 11.0562C105.404 10.7182 105.027 10.5492 104.446 10.5492C104.169 10.5492 103.874 10.5925 103.562 10.6792C103.259 10.7572 103.025 10.8352 102.86 10.9132L102.613 11.0302V16.3082ZM111.646 16.3082V7.3122H113.453L116.001 14.9172L118.549 7.3122H120.356V16.3082H119.355V8.3782H119.173L116.56 15.9832H115.442L112.829 8.3782H112.647V16.3082H111.646ZM126.984 11.7712V15.0992C127.01 15.4199 127.261 15.6105 127.738 15.6712L127.699 16.4382C127.014 16.4382 126.499 16.2649 126.152 15.9182C125.372 16.2649 124.592 16.4382 123.812 16.4382C123.214 16.4382 122.759 16.2692 122.447 15.9312C122.135 15.5932 121.979 15.1079 121.979 14.4752C121.979 13.8425 122.139 13.3789 122.46 13.0842C122.781 12.7809 123.283 12.5945 123.968 12.5252L126.009 12.3302V11.7712C126.009 11.3292 125.914 11.0129 125.723 10.8222C125.532 10.6315 125.272 10.5362 124.943 10.5362C124.25 10.5362 123.53 10.5795 122.785 10.6662L122.382 10.7052L122.343 9.9642C123.296 9.77353 124.141 9.6782 124.878 9.6782C125.615 9.6782 126.148 9.8472 126.477 10.1852C126.815 10.5232 126.984 11.0519 126.984 11.7712ZM122.98 14.4232C122.98 15.2205 123.309 15.6192 123.968 15.6192C124.557 15.6192 125.138 15.5195 125.71 15.3202L126.009 15.2162V13.0712L124.085 13.2532C123.695 13.2879 123.413 13.4005 123.24 13.5912C123.067 13.7819 122.98 14.0592 122.98 14.4232ZM129.883 16.3082H128.908V9.8082H129.87V10.2632C130.572 9.8732 131.243 9.6782 131.885 9.6782C132.751 9.6782 133.332 9.9122 133.627 10.3802C133.93 10.8482 134.082 11.6802 134.082 12.8762V16.3082H133.12V12.9022C133.12 12.0009 133.029 11.3855 132.847 11.0562C132.673 10.7182 132.296 10.5492 131.716 10.5492C131.438 10.5492 131.144 10.5925 130.832 10.6792C130.528 10.7572 130.294 10.8352 130.13 10.9132L129.883 11.0302V16.3082ZM140.479 11.7712V15.0992C140.505 15.4199 140.756 15.6105 141.233 15.6712L141.194 16.4382C140.509 16.4382 139.994 16.2649 139.647 15.9182C138.867 16.2649 138.087 16.4382 137.307 16.4382C136.709 16.4382 136.254 16.2692 135.942 15.9312C135.63 15.5932 135.474 15.1079 135.474 14.4752C135.474 13.8425 135.634 13.3789 135.955 13.0842C136.276 12.7809 136.778 12.5945 137.463 12.5252L139.504 12.3302V11.7712C139.504 11.3292 139.409 11.0129 139.218 10.8222C139.027 10.6315 138.767 10.5362 138.438 10.5362C137.745 10.5362 137.025 10.5795 136.28 10.6662L135.877 10.7052L135.838 9.9642C136.791 9.77353 137.636 9.6782 138.373 9.6782C139.11 9.6782 139.643 9.8472 139.972 10.1852C140.31 10.5232 140.479 11.0519 140.479 11.7712ZM136.475 14.4232C136.475 15.2205 136.804 15.6192 137.463 15.6192C138.052 15.6192 138.633 15.5195 139.205 15.3202L139.504 15.2162V13.0712L137.58 13.2532C137.19 13.2879 136.908 13.4005 136.735 13.5912C136.562 13.7819 136.475 14.0592 136.475 14.4232ZM144.912 19.3632C143.872 19.3632 143.144 19.2202 142.728 18.9342C142.32 18.6569 142.117 18.1455 142.117 17.4002C142.117 17.0449 142.195 16.7545 142.351 16.5292C142.507 16.3125 142.771 16.0655 143.144 15.7882C142.901 15.6235 142.78 15.3245 142.78 14.8912C142.78 14.7439 142.888 14.4709 143.105 14.0722L143.222 13.8642C142.537 13.5522 142.195 12.8979 142.195 11.9012C142.195 10.4192 143.005 9.6782 144.626 9.6782C145.042 9.6782 145.427 9.72153 145.783 9.8082L145.978 9.8472L147.902 9.7952V10.6272L146.667 10.6012C146.953 10.8872 147.096 11.3205 147.096 11.9012C147.096 12.7159 146.892 13.2879 146.485 13.6172C146.086 13.9379 145.453 14.0982 144.587 14.0982C144.353 14.0982 144.14 14.0809 143.95 14.0462C143.794 14.4275 143.716 14.6745 143.716 14.7872C143.716 15.0559 143.798 15.2249 143.963 15.2942C144.127 15.3549 144.626 15.3852 145.458 15.3852C146.29 15.3852 146.888 15.5152 147.252 15.7752C147.616 16.0352 147.798 16.5422 147.798 17.2962C147.798 18.6742 146.836 19.3632 144.912 19.3632ZM143.079 17.3222C143.079 17.7815 143.204 18.0979 143.456 18.2712C143.716 18.4532 144.188 18.5442 144.873 18.5442C145.566 18.5442 146.06 18.4489 146.355 18.2582C146.658 18.0675 146.81 17.7469 146.81 17.2962C146.81 16.8542 146.701 16.5682 146.485 16.4382C146.268 16.3082 145.843 16.2432 145.211 16.2432L143.807 16.1782C143.521 16.3862 143.326 16.5682 143.222 16.7242C143.126 16.8802 143.079 17.0795 143.079 17.3222ZM143.17 11.9012C143.17 12.4125 143.282 12.7765 143.508 12.9932C143.742 13.2099 144.123 13.3182 144.652 13.3182C145.18 13.3182 145.557 13.2099 145.783 12.9932C146.008 12.7765 146.121 12.4125 146.121 11.9012C146.121 11.3812 146.008 11.0129 145.783 10.7962C145.557 10.5795 145.18 10.4712 144.652 10.4712C144.123 10.4712 143.742 10.5839 143.508 10.8092C143.282 11.0259 143.17 11.3899 143.17 11.9012ZM153.501 15.5022L153.878 15.4632L153.904 16.2302C152.916 16.3689 152.071 16.4382 151.369 16.4382C150.433 16.4382 149.77 16.1695 149.38 15.6322C148.99 15.0862 148.795 14.2412 148.795 13.0972C148.795 10.8179 149.7 9.6782 151.512 9.6782C152.387 9.6782 153.041 9.9252 153.475 10.4192C153.908 10.9045 154.125 11.6715 154.125 12.7202L154.073 13.4612H149.783C149.783 14.1805 149.913 14.7135 150.173 15.0602C150.433 15.4069 150.883 15.5802 151.525 15.5802C152.175 15.5802 152.833 15.5542 153.501 15.5022ZM153.15 12.6812C153.15 11.8839 153.02 11.3205 152.76 10.9912C152.508 10.6619 152.092 10.4972 151.512 10.4972C150.94 10.4972 150.506 10.6705 150.212 11.0172C149.926 11.3639 149.778 11.9185 149.77 12.6812H153.15ZM156.619 16.3082H155.644V9.8082H156.606V10.2632C157.256 9.8732 157.889 9.6782 158.504 9.6782C159.31 9.6782 159.873 9.8992 160.194 10.3412C160.48 10.1679 160.848 10.0162 161.299 9.8862C161.758 9.74753 162.161 9.6782 162.508 9.6782C163.375 9.6782 163.955 9.9122 164.25 10.3802C164.553 10.8395 164.705 11.6715 164.705 12.8762V16.3082H163.73V12.9022C163.73 12.0009 163.643 11.3855 163.47 11.0562C163.297 10.7182 162.928 10.5492 162.365 10.5492C162.079 10.5492 161.784 10.5925 161.481 10.6792C161.178 10.7572 160.944 10.8352 160.779 10.9132L160.532 11.0302C160.645 11.3162 160.701 11.9489 160.701 12.9282V16.3082H159.726V12.9542C159.726 12.0182 159.639 11.3855 159.466 11.0562C159.301 10.7182 158.933 10.5492 158.361 10.5492C158.084 10.5492 157.798 10.5925 157.503 10.6792C157.217 10.7572 156.996 10.8352 156.84 10.9132L156.619 11.0302V16.3082ZM170.931 15.5022L171.308 15.4632L171.334 16.2302C170.346 16.3689 169.501 16.4382 168.799 16.4382C167.863 16.4382 167.2 16.1695 166.81 15.6322C166.42 15.0862 166.225 14.2412 166.225 13.0972C166.225 10.8179 167.131 9.6782 168.942 9.6782C169.818 9.6782 170.472 9.9252 170.905 10.4192C171.339 10.9045 171.555 11.6715 171.555 12.7202L171.503 13.4612H167.213C167.213 14.1805 167.343 14.7135 167.603 15.0602C167.863 15.4069 168.314 15.5802 168.955 15.5802C169.605 15.5802 170.264 15.5542 170.931 15.5022ZM170.58 12.6812C170.58 11.8839 170.45 11.3205 170.19 10.9912C169.939 10.6619 169.523 10.4972 168.942 10.4972C168.37 10.4972 167.937 10.6705 167.642 11.0172C167.356 11.3639 167.209 11.9185 167.2 12.6812H170.58ZM174.05 16.3082H173.075V9.8082H174.037V10.2632C174.739 9.8732 175.41 9.6782 176.052 9.6782C176.918 9.6782 177.499 9.9122 177.794 10.3802C178.097 10.8482 178.249 11.6802 178.249 12.8762V16.3082H177.287V12.9022C177.287 12.0009 177.196 11.3855 177.014 11.0562C176.84 10.7182 176.463 10.5492 175.883 10.5492C175.605 10.5492 175.311 10.5925 174.999 10.6792C174.695 10.7572 174.461 10.8352 174.297 10.9132L174.05 11.0302V16.3082ZM183.386 10.6532H181.319V13.7602C181.319 14.5055 181.371 14.9952 181.475 15.2292C181.588 15.4632 181.848 15.5802 182.255 15.5802L183.412 15.5022L183.477 16.3082C182.896 16.4035 182.454 16.4512 182.151 16.4512C181.475 16.4512 181.007 16.2865 180.747 15.9572C180.487 15.6279 180.357 14.9995 180.357 14.0722V10.6532H179.434V9.8082H180.357V7.8192H181.319V9.8082H183.386V10.6532Z" fill="#1F1F1F"/>
<path d="M4.98265 12.332C4.77427 12.332 4.57442 12.4148 4.42707 12.5621C4.27972 12.7095 4.19694 12.9093 4.19694 13.1177C4.19694 13.3261 4.27972 13.526 4.42707 13.6733C4.57442 13.8207 4.77427 13.9034 4.98265 13.9034H5.50646C5.71485 13.9034 5.9147 13.8207 6.06205 13.6733C6.2094 13.526 6.29218 13.3261 6.29218 13.1177C6.29218 12.9093 6.2094 12.7095 6.06205 12.5621C5.9147 12.4148 5.71485 12.332 5.50646 12.332H4.98265ZM4.19694 9.45105C4.19694 9.24267 4.27972 9.04282 4.42707 8.89547C4.57442 8.74812 4.77427 8.66534 4.98265 8.66534H5.50646C5.71485 8.66534 5.9147 8.74812 6.06205 8.89547C6.2094 9.04282 6.29218 9.24267 6.29218 9.45105C6.29218 9.65944 6.2094 9.85929 6.06205 10.0066C5.9147 10.154 5.71485 10.2368 5.50646 10.2368H4.98265C4.77427 10.2368 4.57442 10.154 4.42707 10.0066C4.27972 9.85929 4.19694 9.65944 4.19694 9.45105ZM4.98265 4.99867C4.77427 4.99867 4.57442 5.08145 4.42707 5.2288C4.27972 5.37615 4.19694 5.576 4.19694 5.78439C4.19694 5.99277 4.27972 6.19262 4.42707 6.33997C4.57442 6.48732 4.77427 6.5701 4.98265 6.5701H5.50646C5.71485 6.5701 5.9147 6.48732 6.06205 6.33997C6.2094 6.19262 6.29218 5.99277 6.29218 5.78439C6.29218 5.576 6.2094 5.37615 6.06205 5.2288C5.9147 5.08145 5.71485 4.99867 5.50646 4.99867H4.98265ZM7.8636 13.1177C7.8636 12.9093 7.94638 12.7095 8.09373 12.5621C8.24108 12.4148 8.44093 12.332 8.64932 12.332H9.17313C9.38151 12.332 9.58136 12.4148 9.72871 12.5621C9.87606 12.7095 9.95884 12.9093 9.95884 13.1177C9.95884 13.3261 9.87606 13.526 9.72871 13.6733C9.58136 13.8207 9.38151 13.9034 9.17313 13.9034H8.64932C8.44093 13.9034 8.24108 13.8207 8.09373 13.6733C7.94638 13.526 7.8636 13.3261 7.8636 13.1177ZM8.64932 8.66534C8.44093 8.66534 8.24108 8.74812 8.09373 8.89547C7.94638 9.04282 7.8636 9.24267 7.8636 9.45105C7.8636 9.65944 7.94638 9.85929 8.09373 10.0066C8.24108 10.154 8.44093 10.2368 8.64932 10.2368H9.17313C9.38151 10.2368 9.58136 10.154 9.72871 10.0066C9.87606 9.85929 9.95884 9.65944 9.95884 9.45105C9.95884 9.24267 9.87606 9.04282 9.72871 8.89547C9.58136 8.74812 9.38151 8.66534 9.17313 8.66534H8.64932ZM7.8636 5.78439C7.8636 5.576 7.94638 5.37615 8.09373 5.2288C8.24108 5.08145 8.44093 4.99867 8.64932 4.99867H9.17313C9.38151 4.99867 9.58136 5.08145 9.72871 5.2288C9.87606 5.37615 9.95884 5.576 9.95884 5.78439C9.95884 5.99277 9.87606 6.19262 9.72871 6.33997C9.58136 6.48732 9.38151 6.5701 9.17313 6.5701H8.64932C8.44093 6.5701 8.24108 6.48732 8.09373 6.33997C7.94638 6.19262 7.8636 5.99277 7.8636 5.78439ZM12.316 12.332C12.1076 12.332 11.9078 12.4148 11.7604 12.5621C11.6131 12.7095 11.5303 12.9093 11.5303 13.1177C11.5303 13.3261 11.6131 13.526 11.7604 13.6733C11.9078 13.8207 12.1076 13.9034 12.316 13.9034H12.8398C13.0482 13.9034 13.248 13.8207 13.3954 13.6733C13.5427 13.526 13.6255 13.3261 13.6255 13.1177C13.6255 12.9093 13.5427 12.7095 13.3954 12.5621C13.248 12.4148 13.0482 12.332 12.8398 12.332H12.316ZM11.5303 9.45105C11.5303 9.24267 11.6131 9.04282 11.7604 8.89547C11.9078 8.74812 12.1076 8.66534 12.316 8.66534H12.8398C13.0482 8.66534 13.248 8.74812 13.3954 8.89547C13.5427 9.04282 13.6255 9.24267 13.6255 9.45105C13.6255 9.65944 13.5427 9.85929 13.3954 10.0066C13.248 10.154 13.0482 10.2368 12.8398 10.2368H12.316C12.1076 10.2368 11.9078 10.154 11.7604 10.0066C11.6131 9.85929 11.5303 9.65944 11.5303 9.45105ZM12.316 4.99867C12.1076 4.99867 11.9078 5.08145 11.7604 5.2288C11.6131 5.37615 11.5303 5.576 11.5303 5.78439C11.5303 5.99277 11.6131 6.19262 11.7604 6.33997C11.9078 6.48732 12.1076 6.5701 12.316 6.5701H12.8398C13.0482 6.5701 13.248 6.48732 13.3954 6.33997C13.5427 6.19262 13.6255 5.99277 13.6255 5.78439C13.6255 5.576 13.5427 5.37615 13.3954 5.2288C13.248 5.08145 13.0482 4.99867 12.8398 4.99867H12.316Z" fill="#003952" stroke="#003952" stroke-width="0.2"/>
<path fill-rule="evenodd" clip-rule="evenodd" d="M0.530273 20.713C0.530273 21.2686 0.751021 21.8016 1.14395 22.1945C1.53689 22.5874 2.06982 22.8082 2.62551 22.8082H6.55408C6.76247 22.8082 6.96232 22.7254 7.10967 22.5781C7.25702 22.4307 7.3398 22.2309 7.3398 22.0225V19.6653H10.4827V22.0225C10.4827 22.4562 10.8347 22.8082 11.2684 22.8082H15.1969C15.2933 22.8082 15.3887 22.8019 15.4819 22.7893C15.539 22.802 15.5973 22.8084 15.6558 22.8082H19.3874C19.9431 22.8082 20.476 22.5874 20.869 22.1945C21.2619 21.8016 21.4827 21.2686 21.4827 20.713V12.332C21.4827 12.0067 21.4069 11.6859 21.2615 11.395C21.116 11.1041 20.9048 10.851 20.6446 10.6558L20.1207 10.263C19.954 10.1379 19.7445 10.0842 19.5382 10.1137C19.3319 10.1432 19.1458 10.2534 19.0207 10.4201C18.8957 10.5868 18.842 10.7964 18.8715 11.0026C18.901 11.2089 19.0112 11.3951 19.1779 11.5201L19.7017 11.913C19.7668 11.9617 19.8196 12.025 19.8559 12.0977C19.8923 12.1705 19.9112 12.2507 19.9112 12.332V20.713C19.9112 20.8519 19.856 20.9851 19.7578 21.0833C19.6596 21.1816 19.5263 21.2368 19.3874 21.2368H17.2262C17.2691 21.0691 17.2922 20.8942 17.2922 20.713V2.90343C17.2922 2.34774 17.0714 1.81481 16.6785 1.42188C16.2856 1.02894 15.7526 0.808197 15.1969 0.808197H2.62551C2.06982 0.808197 1.53689 1.02894 1.14395 1.42188C0.751021 1.81481 0.530273 2.34774 0.530273 2.90343V20.713ZM2.62551 21.2368C2.48659 21.2368 2.35336 21.1816 2.25512 21.0833C2.15689 20.9851 2.1017 20.8519 2.1017 20.713V2.90343C2.1017 2.76451 2.15689 2.63128 2.25512 2.53305C2.35336 2.43481 2.48659 2.37963 2.62551 2.37963H15.1969C15.3359 2.37963 15.4691 2.43481 15.5673 2.53305C15.6656 2.63128 15.7207 2.76451 15.7207 2.90343V20.713C15.7207 20.8519 15.6656 20.9851 15.5673 21.0833C15.4691 21.1816 15.3359 21.2368 15.1969 21.2368H12.0541V18.8796C12.0541 18.6712 11.9713 18.4714 11.8239 18.324C11.6766 18.1767 11.4768 18.0939 11.2684 18.0939H6.55408C6.3457 18.0939 6.14585 18.1767 5.9985 18.324C5.85115 18.4714 5.76837 18.6712 5.76837 18.8796V21.2368H2.62551Z" fill="#003952" stroke="#003952" stroke-width="0.2"/>
</svg>
